<svg xmlns="http://www.w3.org/2000/svg" xmlns:xlink="http://www.w3.org/1999/xlink" width="500" zoomAndPan="magnify" viewBox="0 0 375 149.999998" height="200" preserveAspectRatio="xMidYMid meet" version="1.0"><defs><g/><clipPath id="c7e879dcef"><path d="M 8 12 L 374.046875 12 L 374.046875 150 L 8 150 Z M 8 12 " clip-rule="nonzero"/></clipPath><clipPath id="8dc7ae0aec"><path d="M 1.203125 4.53125 L 369 4.53125 L 369 145 L 1.203125 145 Z M 1.203125 4.53125 " clip-rule="nonzero"/></clipPath></defs><g clip-path="url(#c7e879dcef)"><path fill="#000000" d="M 355.238281 81.363281 C 355.238281 62.421875 363.558594 47.007812 374.046875 45.878906 L 374.046875 22.679688 C 374.046875 22.019531 373.980469 21.363281 373.851562 20.714844 C 373.722656 20.066406 373.535156 19.4375 373.28125 18.828125 C 373.027344 18.214844 372.71875 17.636719 372.351562 17.085938 C 371.984375 16.535156 371.570312 16.027344 371.101562 15.5625 C 370.636719 15.09375 370.128906 14.675781 369.582031 14.308594 C 369.03125 13.941406 368.453125 13.632812 367.84375 13.378906 C 367.234375 13.125 366.605469 12.933594 365.960938 12.804688 C 365.3125 12.675781 364.660156 12.613281 364 12.613281 L 118.386719 12.613281 C 118.386719 13.046875 118.347656 13.480469 118.261719 13.910156 C 118.175781 14.339844 118.050781 14.753906 117.882812 15.15625 C 117.714844 15.5625 117.511719 15.945312 117.269531 16.308594 C 117.027344 16.671875 116.753906 17.007812 116.445312 17.316406 C 116.136719 17.625 115.800781 17.902344 115.4375 18.144531 C 115.074219 18.386719 114.691406 18.589844 114.289062 18.757812 C 113.886719 18.925781 113.472656 19.050781 113.046875 19.136719 C 112.617188 19.222656 112.1875 19.265625 111.75 19.265625 L 113.964844 19.265625 L 113.964844 22.589844 L 109.539062 22.589844 L 109.539062 19.265625 L 111.75 19.265625 C 111.3125 19.265625 110.882812 19.222656 110.457031 19.136719 C 110.027344 19.050781 109.613281 18.925781 109.210938 18.757812 C 108.808594 18.589844 108.425781 18.386719 108.0625 18.144531 C 107.699219 17.902344 107.363281 17.625 107.054688 17.316406 C 106.75 17.007812 106.472656 16.671875 106.230469 16.308594 C 105.988281 15.945312 105.785156 15.5625 105.617188 15.15625 C 105.449219 14.753906 105.324219 14.339844 105.238281 13.910156 C 105.15625 13.480469 105.113281 13.046875 105.113281 12.613281 L 18.816406 12.613281 C 18.15625 12.613281 17.503906 12.675781 16.855469 12.804688 C 16.210938 12.933594 15.582031 13.125 14.972656 13.378906 C 14.363281 13.632812 13.785156 13.941406 13.234375 14.308594 C 12.6875 14.675781 12.179688 15.09375 11.710938 15.5625 C 11.246094 16.027344 10.828125 16.535156 10.464844 17.085938 C 10.097656 17.636719 9.789062 18.214844 9.535156 18.828125 C 9.28125 19.4375 9.09375 20.066406 8.964844 20.714844 C 8.835938 21.363281 8.769531 22.019531 8.769531 22.679688 L 8.769531 45.964844 C 9.148438 45.964844 9.5 45.964844 9.875 45.964844 C 20.941406 45.964844 29.792969 61.84375 29.792969 81.449219 C 29.792969 101.054688 20.941406 116.933594 9.875 116.933594 C 9.5 116.933594 9.148438 116.933594 8.769531 116.933594 L 8.769531 140.21875 C 8.769531 140.882812 8.835938 141.535156 8.964844 142.183594 C 9.09375 142.832031 9.28125 143.460938 9.535156 144.074219 C 9.789062 144.683594 10.097656 145.265625 10.464844 145.8125 C 10.828125 146.363281 11.246094 146.871094 11.710938 147.339844 C 12.179688 147.808594 12.6875 148.222656 13.234375 148.589844 C 13.785156 148.960938 14.363281 149.269531 14.972656 149.523438 C 15.582031 149.773438 16.210938 149.964844 16.855469 150.09375 C 17.503906 150.222656 18.15625 150.289062 18.816406 150.289062 L 105.113281 150.289062 C 105.113281 149.851562 105.15625 149.417969 105.238281 148.992188 C 105.324219 148.5625 105.449219 148.144531 105.617188 147.742188 C 105.785156 147.339844 105.988281 146.957031 106.230469 146.59375 C 106.472656 146.230469 106.75 145.894531 107.054688 145.585938 C 107.363281 145.273438 107.699219 145 108.0625 144.757812 C 108.425781 144.515625 108.808594 144.308594 109.210938 144.140625 C 109.613281 143.972656 110.027344 143.847656 110.457031 143.761719 C 110.882812 143.679688 111.3125 143.636719 111.75 143.636719 L 109.539062 143.636719 L 109.539062 140.308594 L 113.964844 140.308594 L 113.964844 143.636719 L 111.75 143.636719 C 112.1875 143.636719 112.617188 143.679688 113.046875 143.761719 C 113.472656 143.847656 113.886719 143.972656 114.289062 144.140625 C 114.691406 144.308594 115.074219 144.515625 115.4375 144.757812 C 115.800781 145 116.136719 145.273438 116.445312 145.582031 C 116.753906 145.894531 117.027344 146.230469 117.269531 146.59375 C 117.511719 146.957031 117.714844 147.339844 117.882812 147.742188 C 118.050781 148.144531 118.175781 148.5625 118.261719 148.992188 C 118.347656 149.417969 118.386719 149.851562 118.386719 150.289062 L 364 150.289062 C 364.660156 150.289062 365.3125 150.222656 365.960938 150.09375 C 366.605469 149.964844 367.234375 149.773438 367.84375 149.523438 C 368.453125 149.269531 369.03125 148.957031 369.582031 148.589844 C 370.128906 148.222656 370.636719 147.808594 371.101562 147.339844 C 371.570312 146.871094 371.984375 146.363281 372.351562 145.8125 C 372.71875 145.265625 373.027344 144.683594 373.28125 144.074219 C 373.535156 143.460938 373.722656 142.832031 373.851562 142.183594 C 373.980469 141.535156 374.046875 140.882812 374.046875 140.21875 L 374.046875 116.933594 C 363.558594 115.714844 355.238281 100.300781 355.238281 81.363281 Z M 114.050781 133.210938 L 109.625 133.210938 L 109.625 126.269531 L 114.050781 126.269531 Z M 114.050781 119.394531 L 109.625 119.394531 L 109.625 112.476562 L 114.050781 112.476562 Z M 114.050781 105.558594 L 109.625 105.558594 L 109.625 98.636719 L 114.050781 98.636719 Z M 114.050781 91.742188 L 109.625 91.742188 L 109.625 84.820312 L 114.050781 84.820312 Z M 114.050781 77.902344 L 109.625 77.902344 L 109.625 70.984375 L 114.050781 70.984375 Z M 114.050781 64.085938 L 109.625 64.085938 L 109.625 57.167969 L 114.050781 57.167969 Z M 114.050781 50.246094 L 109.625 50.246094 L 109.625 43.328125 L 114.050781 43.328125 Z M 114.050781 36.429688 L 109.625 36.429688 L 109.625 29.511719 L 114.050781 29.511719 Z M 114.050781 36.429688 " fill-opacity="1" fill-rule="nonzero"/></g><path fill="#1be19a" d="M 348.597656 74.707031 C 348.597656 55.769531 356.917969 40.355469 367.40625 39.226562 L 367.40625 16.027344 C 367.40625 15.367188 367.34375 14.710938 367.214844 14.0625 C 367.085938 13.414062 366.894531 12.785156 366.644531 12.175781 C 366.390625 11.5625 366.082031 10.984375 365.714844 10.433594 C 365.347656 9.882812 364.929688 9.375 364.464844 8.90625 C 364 8.441406 363.492188 8.023438 362.941406 7.65625 C 362.394531 7.289062 361.816406 6.976562 361.207031 6.726562 C 360.597656 6.472656 359.96875 6.28125 359.320312 6.152344 C 358.675781 6.023438 358.019531 5.957031 357.363281 5.957031 L 111.75 5.957031 C 111.75 6.394531 111.707031 6.828125 111.621094 7.257812 C 111.539062 7.683594 111.410156 8.101562 111.246094 8.503906 C 111.078125 8.910156 110.875 9.292969 110.632812 9.65625 C 110.390625 10.019531 110.113281 10.355469 109.804688 10.664062 C 109.496094 10.972656 109.164062 11.246094 108.800781 11.492188 C 108.4375 11.734375 108.054688 11.9375 107.652344 12.105469 C 107.25 12.273438 106.835938 12.398438 106.40625 12.484375 C 105.980469 12.570312 105.546875 12.613281 105.113281 12.613281 L 107.324219 12.613281 L 107.324219 15.9375 L 102.898438 15.9375 L 102.898438 12.613281 L 105.113281 12.613281 C 104.675781 12.613281 104.246094 12.570312 103.816406 12.484375 C 103.390625 12.398438 102.972656 12.273438 102.570312 12.105469 C 102.167969 11.9375 101.785156 11.734375 101.425781 11.492188 C 101.0625 11.246094 100.726562 10.972656 100.417969 10.664062 C 100.109375 10.355469 99.835938 10.019531 99.59375 9.65625 C 99.351562 9.292969 99.144531 8.910156 98.980469 8.503906 C 98.8125 8.101562 98.6875 7.683594 98.601562 7.257812 C 98.515625 6.828125 98.472656 6.394531 98.472656 5.957031 L 12.179688 5.957031 C 11.519531 5.957031 10.863281 6.023438 10.21875 6.152344 C 9.570312 6.28125 8.941406 6.472656 8.332031 6.726562 C 7.722656 6.976562 7.144531 7.289062 6.597656 7.65625 C 6.046875 8.023438 5.539062 8.441406 5.074219 8.90625 C 4.609375 9.375 4.191406 9.882812 3.824219 10.433594 C 3.457031 10.984375 3.148438 11.5625 2.898438 12.175781 C 2.644531 12.785156 2.453125 13.414062 2.324219 14.0625 C 2.195312 14.710938 2.132812 15.367188 2.132812 16.027344 L 2.132812 39.3125 C 2.507812 39.3125 2.863281 39.3125 3.238281 39.3125 C 14.300781 39.3125 23.152344 55.191406 23.152344 74.796875 C 23.152344 94.402344 14.300781 110.28125 3.238281 110.28125 C 2.863281 110.28125 2.507812 110.28125 2.132812 110.28125 L 2.132812 133.566406 C 2.132812 134.226562 2.195312 134.882812 2.324219 135.53125 C 2.453125 136.179688 2.644531 136.808594 2.898438 137.417969 C 3.148438 138.03125 3.457031 138.609375 3.824219 139.160156 C 4.191406 139.710938 4.609375 140.21875 5.074219 140.6875 C 5.539062 141.152344 6.046875 141.570312 6.597656 141.9375 C 7.144531 142.304688 7.722656 142.617188 8.332031 142.867188 C 8.941406 143.121094 9.570312 143.3125 10.21875 143.441406 C 10.863281 143.570312 11.519531 143.636719 12.179688 143.636719 L 98.472656 143.636719 C 98.472656 143.199219 98.515625 142.765625 98.601562 142.335938 C 98.6875 141.910156 98.8125 141.492188 98.980469 141.089844 C 99.144531 140.6875 99.351562 140.300781 99.59375 139.9375 C 99.835938 139.574219 100.109375 139.238281 100.417969 138.929688 C 100.726562 138.621094 101.0625 138.347656 101.425781 138.101562 C 101.785156 137.859375 102.167969 137.65625 102.570312 137.488281 C 102.972656 137.320312 103.390625 137.195312 103.816406 137.109375 C 104.246094 137.023438 104.675781 136.980469 105.113281 136.980469 L 102.898438 136.980469 L 102.898438 133.65625 L 107.324219 133.65625 L 107.324219 136.980469 L 105.113281 136.980469 C 105.546875 136.980469 105.980469 137.023438 106.40625 137.109375 C 106.835938 137.195312 107.25 137.320312 107.652344 137.488281 C 108.054688 137.65625 108.4375 137.859375 108.800781 138.101562 C 109.164062 138.347656 109.496094 138.621094 109.804688 138.929688 C 110.113281 139.238281 110.390625 139.574219 110.632812 139.9375 C 110.875 140.300781 111.078125 140.6875 111.246094 141.089844 C 111.410156 141.492188 111.539062 141.910156 111.621094 142.335938 C 111.707031 142.765625 111.75 143.199219 111.75 143.636719 L 357.363281 143.636719 C 358.019531 143.636719 358.675781 143.570312 359.320312 143.441406 C 359.96875 143.3125 360.597656 143.121094 361.207031 142.867188 C 361.816406 142.617188 362.394531 142.304688 362.941406 141.9375 C 363.492188 141.570312 364 141.152344 364.464844 140.6875 C 364.929688 140.21875 365.347656 139.710938 365.714844 139.160156 C 366.082031 138.609375 366.390625 138.03125 366.644531 137.417969 C 366.894531 136.808594 367.085938 136.179688 367.214844 135.53125 C 367.34375 134.882812 367.40625 134.226562 367.40625 133.566406 L 367.40625 110.28125 C 356.917969 109.0625 348.597656 93.648438 348.597656 74.707031 Z M 107.414062 126.558594 L 102.988281 126.558594 L 102.988281 119.617188 L 107.414062 119.617188 Z M 107.414062 112.742188 L 102.988281 112.742188 L 102.988281 105.824219 L 107.414062 105.824219 Z M 107.414062 98.902344 L 102.988281 98.902344 L 102.988281 91.984375 L 107.414062 91.984375 Z M 107.414062 85.085938 L 102.988281 85.085938 L 102.988281 78.167969 L 107.414062 78.167969 Z M 107.414062 71.25 L 102.988281 71.25 L 102.988281 64.328125 L 107.414062 64.328125 Z M 107.414062 57.433594 L 102.988281 57.433594 L 102.988281 50.511719 L 107.414062 50.511719 Z M 107.414062 43.59375 L 102.988281 43.59375 L 102.988281 36.675781 L 107.414062 36.675781 Z M 107.414062 29.777344 L 102.988281 29.777344 L 102.988281 22.859375 L 107.414062 22.859375 Z M 107.414062 29.777344 " fill-opacity="1" fill-rule="nonzero"/><g clip-path="url(#8dc7ae0aec)"><path fill="#1be19a" d="M 357.363281 144.566406 L 110.730469 144.566406 L 110.730469 143.457031 C 110.730469 143.09375 110.695312 142.734375 110.625 142.375 C 110.554688 142.019531 110.449219 141.671875 110.3125 141.335938 C 110.171875 141 110 140.679688 109.800781 140.378906 C 109.597656 140.074219 109.367188 139.792969 109.113281 139.539062 C 108.855469 139.28125 108.574219 139.050781 108.273438 138.847656 C 107.972656 138.644531 107.652344 138.476562 107.316406 138.335938 C 106.980469 138.195312 106.636719 138.089844 106.28125 138.019531 C 105.921875 137.949219 105.5625 137.914062 105.199219 137.914062 C 104.835938 137.914062 104.476562 137.949219 104.121094 138.019531 C 103.765625 138.089844 103.417969 138.195312 103.082031 138.335938 C 102.746094 138.476562 102.429688 138.644531 102.128906 138.847656 C 101.824219 139.050781 101.546875 139.28125 101.289062 139.539062 C 101.03125 139.792969 100.804688 140.074219 100.601562 140.378906 C 100.398438 140.679688 100.230469 141 100.089844 141.335938 C 99.949219 141.671875 99.847656 142.019531 99.773438 142.375 C 99.703125 142.734375 99.667969 143.09375 99.667969 143.457031 L 99.667969 144.566406 L 12.355469 144.566406 C 11.628906 144.566406 10.910156 144.496094 10.195312 144.355469 C 9.484375 144.210938 8.792969 144 8.121094 143.722656 C 7.449219 143.445312 6.8125 143.101562 6.207031 142.699219 C 5.605469 142.292969 5.046875 141.832031 4.53125 141.320312 C 4.019531 140.804688 3.558594 140.242188 3.15625 139.636719 C 2.753906 139.035156 2.410156 138.394531 2.132812 137.722656 C 1.855469 137.050781 1.644531 136.355469 1.503906 135.640625 C 1.363281 134.925781 1.292969 134.207031 1.292969 133.476562 L 1.292969 108.863281 L 2.863281 109.039062 L 3.503906 109.039062 C 13.882812 109.039062 22.3125 93.515625 22.3125 74.664062 C 22.3125 55.8125 13.882812 40.289062 3.503906 40.289062 L 2.863281 40.289062 L 1.292969 40.464844 L 1.292969 16.027344 C 1.292969 15.300781 1.363281 14.578125 1.503906 13.863281 C 1.644531 13.148438 1.855469 12.457031 2.132812 11.785156 C 2.410156 11.109375 2.753906 10.472656 3.15625 9.867188 C 3.558594 9.261719 4.019531 8.703125 4.53125 8.1875 C 5.046875 7.671875 5.605469 7.210938 6.207031 6.808594 C 6.8125 6.402344 7.449219 6.0625 8.121094 5.78125 C 8.792969 5.503906 9.484375 5.292969 10.195312 5.152344 C 10.910156 5.007812 11.628906 4.9375 12.355469 4.9375 L 99.667969 4.9375 L 99.667969 6.046875 C 99.667969 6.410156 99.703125 6.773438 99.773438 7.128906 C 99.847656 7.484375 99.949219 7.832031 100.089844 8.167969 C 100.230469 8.503906 100.398438 8.824219 100.601562 9.128906 C 100.804688 9.429688 101.03125 9.710938 101.289062 9.96875 C 101.546875 10.226562 101.824219 10.457031 102.128906 10.65625 C 102.429688 10.859375 102.746094 11.03125 103.082031 11.167969 C 103.417969 11.308594 103.765625 11.414062 104.121094 11.484375 C 104.476562 11.554688 104.835938 11.589844 105.199219 11.589844 C 105.5625 11.589844 105.921875 11.554688 106.28125 11.484375 C 106.636719 11.414062 106.980469 11.308594 107.316406 11.167969 C 107.652344 11.03125 107.972656 10.859375 108.273438 10.65625 C 108.574219 10.457031 108.855469 10.226562 109.113281 9.96875 C 109.367188 9.710938 109.597656 9.429688 109.800781 9.128906 C 110 8.824219 110.171875 8.503906 110.3125 8.167969 C 110.449219 7.832031 110.554688 7.484375 110.625 7.128906 C 110.695312 6.773438 110.730469 6.410156 110.730469 6.046875 L 110.730469 4.9375 L 357.363281 4.9375 C 358.089844 4.9375 358.808594 5.007812 359.519531 5.152344 C 360.234375 5.292969 360.925781 5.503906 361.59375 5.78125 C 362.265625 6.0625 362.90625 6.402344 363.507812 6.808594 C 364.113281 7.210938 364.671875 7.671875 365.183594 8.1875 C 365.699219 8.699219 366.15625 9.261719 366.5625 9.867188 C 366.964844 10.472656 367.304688 11.109375 367.582031 11.785156 C 367.859375 12.457031 368.070312 13.148438 368.210938 13.863281 C 368.355469 14.578125 368.425781 15.300781 368.425781 16.027344 L 368.425781 40.421875 L 367.429688 40.421875 C 357.449219 41.398438 349.617188 56.457031 349.617188 74.707031 C 349.617188 92.960938 357.449219 107.972656 367.429688 108.996094 L 368.425781 108.996094 L 368.425781 133.390625 C 368.429688 134.121094 368.367188 134.847656 368.226562 135.566406 C 368.089844 136.285156 367.882812 136.980469 367.609375 137.660156 C 367.332031 138.339844 366.996094 138.980469 366.589844 139.59375 C 366.1875 140.203125 365.730469 140.769531 365.214844 141.289062 C 364.703125 141.808594 364.140625 142.269531 363.535156 142.679688 C 362.929688 143.089844 362.289062 143.433594 361.617188 143.714844 C 360.941406 143.996094 360.246094 144.207031 359.53125 144.351562 C 358.816406 144.496094 358.09375 144.566406 357.363281 144.566406 Z M 112.855469 142.347656 L 357.363281 142.347656 C 357.941406 142.347656 358.519531 142.292969 359.089844 142.179688 C 359.660156 142.066406 360.210938 141.898438 360.75 141.671875 C 361.285156 141.449219 361.796875 141.175781 362.277344 140.855469 C 362.761719 140.53125 363.210938 140.164062 363.621094 139.75 C 364.03125 139.339844 364.398438 138.890625 364.722656 138.40625 C 365.042969 137.921875 365.316406 137.410156 365.539062 136.871094 C 365.761719 136.335938 365.929688 135.78125 366.042969 135.207031 C 366.15625 134.636719 366.210938 134.0625 366.210938 133.476562 L 366.210938 111.058594 C 355.589844 109.128906 347.40625 93.492188 347.40625 74.707031 C 347.40625 55.925781 355.589844 40.289062 366.210938 38.359375 L 366.210938 16.027344 C 366.210938 15.445312 366.15625 14.867188 366.042969 14.296875 C 365.929688 13.726562 365.761719 13.171875 365.539062 12.632812 C 365.316406 12.09375 365.042969 11.582031 364.722656 11.097656 C 364.398438 10.613281 364.03125 10.167969 363.621094 9.753906 C 363.210938 9.34375 362.761719 8.976562 362.277344 8.652344 C 361.796875 8.328125 361.285156 8.054688 360.75 7.832031 C 360.210938 7.609375 359.660156 7.441406 359.089844 7.328125 C 358.519531 7.214844 357.941406 7.15625 357.363281 7.15625 L 112.855469 7.15625 C 112.765625 7.792969 112.59375 8.410156 112.347656 9.007812 C 112.097656 9.601562 111.78125 10.15625 111.394531 10.671875 C 111.007812 11.1875 110.566406 11.648438 110.0625 12.050781 C 109.5625 12.453125 109.015625 12.789062 108.429688 13.054688 L 108.429688 17.136719 L 101.792969 17.136719 L 101.792969 12.964844 C 101.207031 12.699219 100.664062 12.367188 100.160156 11.960938 C 99.660156 11.558594 99.214844 11.097656 98.828125 10.582031 C 98.441406 10.066406 98.125 9.511719 97.878906 8.917969 C 97.628906 8.324219 97.460938 7.707031 97.367188 7.066406 L 12.355469 7.066406 C 11.773438 7.066406 11.199219 7.125 10.628906 7.238281 C 10.058594 7.351562 9.503906 7.519531 8.96875 7.742188 C 8.429688 7.964844 7.921875 8.238281 7.4375 8.5625 C 6.953125 8.886719 6.507812 9.253906 6.097656 9.664062 C 5.683594 10.078125 5.320312 10.527344 4.996094 11.011719 C 4.671875 11.496094 4.398438 12.003906 4.179688 12.542969 C 3.957031 13.082031 3.789062 13.636719 3.675781 14.207031 C 3.5625 14.777344 3.503906 15.355469 3.503906 15.9375 L 3.503906 38.117188 C 15.097656 38.117188 24.523438 54.527344 24.523438 74.707031 C 24.523438 94.890625 15.097656 111.300781 3.503906 111.300781 L 3.503906 133.476562 C 3.503906 134.0625 3.5625 134.636719 3.675781 135.207031 C 3.789062 135.78125 3.957031 136.335938 4.179688 136.871094 C 4.398438 137.410156 4.671875 137.921875 4.996094 138.40625 C 5.320312 138.890625 5.683594 139.339844 6.097656 139.75 C 6.507812 140.164062 6.953125 140.53125 7.4375 140.855469 C 7.921875 141.175781 8.429688 141.449219 8.96875 141.671875 C 9.503906 141.898438 10.058594 142.066406 10.628906 142.179688 C 11.199219 142.292969 11.773438 142.347656 12.355469 142.347656 L 97.542969 142.347656 C 97.636719 141.710938 97.808594 141.09375 98.054688 140.5 C 98.300781 139.902344 98.617188 139.347656 99.003906 138.832031 C 99.390625 138.316406 99.835938 137.859375 100.339844 137.453125 C 100.839844 137.050781 101.382812 136.714844 101.96875 136.449219 L 101.96875 132.371094 L 108.609375 132.371094 L 108.609375 136.449219 C 109.175781 136.726562 109.703125 137.070312 110.1875 137.480469 C 110.671875 137.886719 111.101562 138.351562 111.472656 138.863281 C 111.84375 139.378906 112.144531 139.929688 112.378906 140.519531 C 112.613281 141.109375 112.773438 141.71875 112.855469 142.347656 Z M 105.199219 135.695312 L 106.308594 135.695312 L 106.308594 134.585938 L 104.09375 134.585938 L 104.09375 135.695312 Z M 104.09375 14.828125 L 106.308594 14.828125 L 106.308594 13.722656 L 104.09375 13.722656 Z M 108.519531 127.667969 L 101.882812 127.667969 L 101.882812 118.554688 L 108.519531 118.554688 Z M 104.09375 125.449219 L 106.308594 125.449219 L 106.308594 120.769531 L 104.09375 120.769531 Z M 108.519531 113.851562 L 101.882812 113.851562 L 101.882812 104.714844 L 108.519531 104.714844 Z M 104.09375 111.632812 L 106.308594 111.632812 L 106.308594 106.933594 L 104.09375 106.933594 Z M 108.519531 100.011719 L 101.882812 100.011719 L 101.882812 90.785156 L 108.519531 90.785156 Z M 104.09375 97.792969 L 106.308594 97.792969 L 106.308594 93.003906 L 104.09375 93.003906 Z M 108.519531 86.195312 L 101.882812 86.195312 L 101.882812 77.058594 L 108.519531 77.058594 Z M 104.09375 83.976562 L 106.308594 83.976562 L 106.308594 79.277344 L 104.09375 79.277344 Z M 108.519531 72.359375 L 101.882812 72.359375 L 101.882812 63.21875 L 108.519531 63.21875 Z M 104.09375 70.140625 L 106.308594 70.140625 L 106.308594 65.4375 L 104.09375 65.4375 Z M 108.519531 58.542969 L 101.882812 58.542969 L 101.882812 49.402344 L 108.519531 49.402344 Z M 104.09375 56.324219 L 106.308594 56.324219 L 106.308594 51.621094 L 104.09375 51.621094 Z M 108.519531 44.703125 L 101.882812 44.703125 L 101.882812 35.566406 L 108.519531 35.566406 Z M 104.09375 42.484375 L 106.308594 42.484375 L 106.308594 37.78125 L 104.09375 37.78125 Z M 108.519531 30.886719 L 101.882812 30.886719 L 101.882812 21.75 L 108.519531 21.75 Z M 104.09375 28.667969 L 106.308594 28.667969 L 106.308594 23.964844 L 104.09375 23.964844 Z M 104.09375 28.667969 " fill-opacity="1" fill-rule="nonzero"/></g><path fill="#1be19a" d="M 49.882812 44.769531 L 76.433594 44.769531 L 76.433594 46.988281 L 49.882812 46.988281 Z M 49.882812 44.769531 " fill-opacity="1" fill-rule="nonzero"/><path fill="#1be19a" d="M 49.882812 49.203125 L 76.433594 49.203125 L 76.433594 51.421875 L 49.882812 51.421875 Z M 49.882812 49.203125 " fill-opacity="1" fill-rule="nonzero"/><path fill="#1be19a" d="M 49.882812 53.640625 L 76.433594 53.640625 L 76.433594 55.859375 L 49.882812 55.859375 Z M 49.882812 53.640625 " fill-opacity="1" fill-rule="nonzero"/><path fill="#1be19a" d="M 49.882812 58.074219 L 76.433594 58.074219 L 76.433594 60.292969 L 49.882812 60.292969 Z M 49.882812 58.074219 " fill-opacity="1" fill-rule="nonzero"/><path fill="#1be19a" d="M 49.882812 62.511719 L 76.433594 62.511719 L 76.433594 64.730469 L 49.882812 64.730469 Z M 49.882812 62.511719 " fill-opacity="1" fill-rule="nonzero"/><path fill="#1be19a" d="M 49.882812 66.945312 L 76.433594 66.945312 L 76.433594 69.164062 L 49.882812 69.164062 Z M 49.882812 66.945312 " fill-opacity="1" fill-rule="nonzero"/><path fill="#1be19a" d="M 49.882812 71.382812 L 76.433594 71.382812 L 76.433594 73.597656 L 49.882812 73.597656 Z M 49.882812 71.382812 " fill-opacity="1" fill-rule="nonzero"/><path fill="#1be19a" d="M 49.882812 75.816406 L 76.433594 75.816406 L 76.433594 78.035156 L 49.882812 78.035156 Z M 49.882812 75.816406 " fill-opacity="1" fill-rule="nonzero"/><path fill="#1be19a" d="M 49.882812 80.253906 L 76.433594 80.253906 L 76.433594 82.46875 L 49.882812 82.46875 Z M 49.882812 80.253906 " fill-opacity="1" fill-rule="nonzero"/><path fill="#1be19a" d="M 49.882812 84.6875 L 76.433594 84.6875 L 76.433594 86.90625 L 49.882812 86.90625 Z M 49.882812 84.6875 " fill-opacity="1" fill-rule="nonzero"/><path fill="#1be19a" d="M 49.882812 89.125 L 76.433594 89.125 L 76.433594 91.339844 L 49.882812 91.339844 Z M 49.882812 89.125 " fill-opacity="1" fill-rule="nonzero"/><path fill="#1be19a" d="M 49.882812 93.558594 L 76.433594 93.558594 L 76.433594 95.777344 L 49.882812 95.777344 Z M 49.882812 93.558594 " fill-opacity="1" fill-rule="nonzero"/><path fill="#1be19a" d="M 49.882812 97.996094 L 76.433594 97.996094 L 76.433594 100.210938 L 49.882812 100.210938 Z M 49.882812 97.996094 " fill-opacity="1" fill-rule="nonzero"/><path fill="#1be19a" d="M 49.882812 102.429688 L 76.433594 102.429688 L 76.433594 104.648438 L 49.882812 104.648438 Z M 49.882812 102.429688 " fill-opacity="1" fill-rule="nonzero"/><g fill="#ffffff" fill-opacity="1"><g transform="translate(117.988765, 109.578726)"><g><path d="M 5.78125 0 L 5.78125 -49.46875 L 22.859375 -49.46875 L 22.859375 -42.328125 L 23.046875 -42.328125 C 23.171875 -42.585938 23.378906 -42.910156 23.671875 -43.296875 C 23.960938 -43.679688 24.585938 -44.351562 25.546875 -45.3125 C 26.515625 -46.28125 27.546875 -47.148438 28.640625 -47.921875 C 29.734375 -48.691406 31.144531 -49.378906 32.875 -49.984375 C 34.613281 -50.597656 36.382812 -50.90625 38.1875 -50.90625 C 40.050781 -50.90625 41.878906 -50.648438 43.671875 -50.140625 C 45.472656 -49.628906 46.789062 -49.113281 47.625 -48.59375 L 48.984375 -47.828125 L 41.84375 -33.359375 C 39.726562 -35.160156 36.769531 -36.0625 32.96875 -36.0625 C 30.914062 -36.0625 29.148438 -35.609375 27.671875 -34.703125 C 26.191406 -33.804688 25.144531 -32.710938 24.53125 -31.421875 C 23.925781 -30.140625 23.492188 -29.050781 23.234375 -28.15625 C 22.984375 -27.257812 22.859375 -26.550781 22.859375 -26.03125 L 22.859375 0 Z M 5.78125 0 "/></g></g></g><g fill="#ffffff" fill-opacity="1"><g transform="translate(166.008726, 109.578726)"><g><path d="M 7.421875 -77.03125 C 9.410156 -79.03125 11.785156 -80.03125 14.546875 -80.03125 C 17.316406 -80.03125 19.695312 -79.03125 21.6875 -77.03125 C 23.6875 -75.039062 24.6875 -72.664062 24.6875 -69.90625 C 24.6875 -67.144531 23.6875 -64.765625 21.6875 -62.765625 C 19.695312 -60.773438 17.316406 -59.78125 14.546875 -59.78125 C 11.785156 -59.78125 9.410156 -60.773438 7.421875 -62.765625 C 5.429688 -64.765625 4.4375 -67.144531 4.4375 -69.90625 C 4.4375 -72.664062 5.429688 -75.039062 7.421875 -77.03125 Z M 5.78125 -49.46875 L 5.78125 0 L 22.859375 0 L 22.859375 -49.46875 Z M 5.78125 -49.46875 "/></g></g></g><g fill="#ffffff" fill-opacity="1"><g transform="translate(195.129266, 109.578726)"><g><path d="M 8.671875 -49.46875 L 8.671875 -59.96875 C 8.742188 -67.363281 10.484375 -73.28125 13.890625 -77.71875 C 17.296875 -82.15625 22.019531 -84.375 28.0625 -84.375 C 30.632812 -84.375 33.09375 -84.003906 35.4375 -83.265625 C 37.78125 -82.523438 39.46875 -81.769531 40.5 -81 L 42.140625 -79.9375 L 36.15625 -67.875 C 34.613281 -68.78125 32.910156 -69.234375 31.046875 -69.234375 C 28.921875 -69.234375 27.503906 -68.507812 26.796875 -67.0625 C 26.097656 -65.613281 25.75 -63.09375 25.75 -59.5 L 25.75 -49.46875 L 37.125 -49.46875 L 37.125 -36.453125 L 25.75 -36.453125 L 25.75 0 L 8.671875 0 L 8.671875 -36.453125 L 1.546875 -36.453125 L 1.546875 -49.46875 Z M 8.671875 -49.46875 "/></g></g></g><g fill="#ffffff" fill-opacity="1"><g transform="translate(231.288876, 109.578726)"><g><path d="M 9.15625 -6.109375 C 4.53125 -11.160156 2.21875 -17.347656 2.21875 -24.671875 C 2.21875 -32.003906 4.53125 -38.207031 9.15625 -43.28125 C 13.789062 -48.363281 19.675781 -50.90625 26.8125 -50.90625 C 33.363281 -50.90625 38.757812 -48.847656 43 -44.734375 L 43 -49.46875 L 60.078125 -49.46875 L 60.078125 0 L 43.203125 0 L 43.203125 -5.59375 L 43 -5.59375 C 38.757812 -0.894531 33.363281 1.453125 26.8125 1.453125 C 19.675781 1.453125 13.789062 -1.066406 9.15625 -6.109375 Z M 23.671875 -33.0625 C 21.453125 -30.882812 20.34375 -28.09375 20.34375 -24.6875 C 20.34375 -21.28125 21.398438 -18.5 23.515625 -16.34375 C 25.640625 -14.1875 28.441406 -13.109375 31.921875 -13.109375 C 35.253906 -13.109375 38 -14.203125 40.15625 -16.390625 C 42.3125 -18.578125 43.390625 -21.34375 43.390625 -24.6875 C 43.390625 -28.09375 42.28125 -30.882812 40.0625 -33.0625 C 37.84375 -35.25 35.128906 -36.34375 31.921875 -36.34375 C 28.640625 -36.34375 25.890625 -35.25 23.671875 -33.0625 Z M 23.671875 -33.0625 "/></g></g></g><g fill="#ffffff" fill-opacity="1"><g transform="translate(297.147586, 109.578726)"><g><path d="M 27.28125 -50.90625 C 30.113281 -50.90625 32.910156 -50.582031 35.671875 -49.9375 C 38.441406 -49.300781 40.5 -48.660156 41.84375 -48.015625 L 43.875 -47.046875 L 38.28125 -35.875 C 34.425781 -37.925781 30.757812 -38.953125 27.28125 -38.953125 C 25.351562 -38.953125 23.988281 -38.742188 23.1875 -38.328125 C 22.382812 -37.910156 21.984375 -37.125 21.984375 -35.96875 C 21.984375 -35.707031 22.015625 -35.445312 22.078125 -35.1875 C 22.140625 -34.9375 22.265625 -34.695312 22.453125 -34.46875 C 22.648438 -34.25 22.828125 -34.054688 22.984375 -33.890625 C 23.148438 -33.734375 23.425781 -33.554688 23.8125 -33.359375 C 24.195312 -33.171875 24.5 -33.023438 24.71875 -32.921875 C 24.945312 -32.828125 25.316406 -32.679688 25.828125 -32.484375 C 26.347656 -32.296875 26.738281 -32.15625 27 -32.0625 C 27.257812 -31.96875 27.691406 -31.820312 28.296875 -31.625 C 28.910156 -31.4375 29.378906 -31.304688 29.703125 -31.234375 C 31.691406 -30.660156 33.425781 -30.019531 34.90625 -29.3125 C 36.382812 -28.601562 37.941406 -27.640625 39.578125 -26.421875 C 41.222656 -25.203125 42.492188 -23.660156 43.390625 -21.796875 C 44.285156 -19.929688 44.734375 -17.804688 44.734375 -15.421875 C 44.734375 -4.171875 36.925781 1.453125 21.3125 1.453125 C 17.769531 1.453125 14.40625 0.90625 11.21875 -0.1875 C 8.039062 -1.28125 5.75 -2.375 4.34375 -3.46875 L 2.21875 -5.203125 L 9.15625 -16.875 C 9.675781 -16.425781 10.351562 -15.894531 11.1875 -15.28125 C 12.019531 -14.664062 13.53125 -13.828125 15.71875 -12.765625 C 17.90625 -11.710938 19.800781 -11.1875 21.40625 -11.1875 C 24.9375 -11.1875 26.703125 -12.375 26.703125 -14.75 C 26.703125 -15.84375 26.253906 -16.691406 25.359375 -17.296875 C 24.460938 -17.910156 22.9375 -18.601562 20.78125 -19.375 C 18.625 -20.144531 16.9375 -20.851562 15.71875 -21.5 C 12.632812 -23.101562 10.191406 -24.914062 8.390625 -26.9375 C 6.585938 -28.96875 5.6875 -31.65625 5.6875 -35 C 5.6875 -40.007812 7.628906 -43.910156 11.515625 -46.703125 C 15.410156 -49.503906 20.664062 -50.90625 27.28125 -50.90625 Z M 27.28125 -50.90625 "/></g></g></g><g fill="#ffffff" fill-opacity="0.302"><g transform="translate(24.413029, 65.345247)"><g><path d="M 27.46875 0 L 17.4375 0 L 17.4375 -27.46875 L 17.53125 -31.984375 L 17.703125 -36.921875 C 16.035156 -35.253906 14.875 -34.160156 14.21875 -33.640625 L 8.765625 -29.25 L 3.921875 -35.296875 L 19.21875 -47.46875 L 27.46875 -47.46875 Z M 27.46875 0 "/></g></g></g><g fill="#ffffff" fill-opacity="0.502"><g transform="translate(21.473904, 62.406122)"><g><path d="M 27.46875 0 L 17.4375 0 L 17.4375 -27.46875 L 17.53125 -31.984375 L 17.703125 -36.921875 C 16.035156 -35.253906 14.875 -34.160156 14.21875 -33.640625 L 8.765625 -29.25 L 3.921875 -35.296875 L 19.21875 -47.46875 L 27.46875 -47.46875 Z M 27.46875 0 "/></g></g></g><g fill="#ffffff" fill-opacity="1"><g transform="translate(18.53478, 59.466998)"><g><path d="M 27.46875 0 L 17.4375 0 L 17.4375 -27.46875 L 17.53125 -31.984375 L 17.703125 -36.921875 C 16.035156 -35.253906 14.875 -34.160156 14.21875 -33.640625 L 8.765625 -29.25 L 3.921875 -35.296875 L 19.21875 -47.46875 L 27.46875 -47.46875 Z M 27.46875 0 "/></g></g></g><g fill="#ffffff" fill-opacity="0.302"><g transform="translate(62.335663, 98.592359)"><g><path d="M 34.453125 0 L 3.25 0 L 3.25 -4.640625 L 15.75 -17.203125 C 19.5625 -21.054688 22.070312 -23.804688 23.28125 -25.453125 C 24.488281 -27.097656 25.394531 -28.695312 26 -30.25 C 26.613281 -31.8125 26.921875 -33.492188 26.921875 -35.296875 C 26.921875 -37.828125 26.148438 -39.832031 24.609375 -41.3125 C 23.078125 -42.800781 20.945312 -43.546875 18.21875 -43.546875 C 16.25 -43.546875 14.378906 -43.21875 12.609375 -42.5625 C 10.847656 -41.914062 8.882812 -40.738281 6.71875 -39.03125 L 3.859375 -42.703125 C 8.234375 -46.335938 13 -48.15625 18.15625 -48.15625 C 22.613281 -48.15625 26.109375 -47.007812 28.640625 -44.71875 C 31.171875 -42.4375 32.4375 -39.367188 32.4375 -35.515625 C 32.4375 -32.515625 31.59375 -29.539062 29.90625 -26.59375 C 28.21875 -23.644531 25.054688 -19.921875 20.421875 -15.421875 L 10.03125 -5.265625 L 10.03125 -5 L 34.453125 -5 Z M 34.453125 0 "/></g></g></g><g fill="#ffffff" fill-opacity="0.502"><g transform="translate(59.396544, 95.653234)"><g><path d="M 34.453125 0 L 3.25 0 L 3.25 -4.640625 L 15.75 -17.203125 C 19.5625 -21.054688 22.070312 -23.804688 23.28125 -25.453125 C 24.488281 -27.097656 25.394531 -28.695312 26 -30.25 C 26.613281 -31.8125 26.921875 -33.492188 26.921875 -35.296875 C 26.921875 -37.828125 26.148438 -39.832031 24.609375 -41.3125 C 23.078125 -42.800781 20.945312 -43.546875 18.21875 -43.546875 C 16.25 -43.546875 14.378906 -43.21875 12.609375 -42.5625 C 10.847656 -41.914062 8.882812 -40.738281 6.71875 -39.03125 L 3.859375 -42.703125 C 8.234375 -46.335938 13 -48.15625 18.15625 -48.15625 C 22.613281 -48.15625 26.109375 -47.007812 28.640625 -44.71875 C 31.171875 -42.4375 32.4375 -39.367188 32.4375 -35.515625 C 32.4375 -32.515625 31.59375 -29.539062 29.90625 -26.59375 C 28.21875 -23.644531 25.054688 -19.921875 20.421875 -15.421875 L 10.03125 -5.265625 L 10.03125 -5 L 34.453125 -5 Z M 34.453125 0 "/></g></g></g><g fill="#ffffff" fill-opacity="1"><g transform="translate(56.457417, 92.714109)"><g><path d="M 34.453125 0 L 3.25 0 L 3.25 -4.640625 L 15.75 -17.203125 C 19.5625 -21.054688 22.070312 -23.804688 23.28125 -25.453125 C 24.488281 -27.097656 25.394531 -28.695312 26 -30.25 C 26.613281 -31.8125 26.921875 -33.492188 26.921875 -35.296875 C 26.921875 -37.828125 26.148438 -39.832031 24.609375 -41.3125 C 23.078125 -42.800781 20.945312 -43.546875 18.21875 -43.546875 C 16.25 -43.546875 14.378906 -43.21875 12.609375 -42.5625 C 10.847656 -41.914062 8.882812 -40.738281 6.71875 -39.03125 L 3.859375 -42.703125 C 8.234375 -46.335938 13 -48.15625 18.15625 -48.15625 C 22.613281 -48.15625 26.109375 -47.007812 28.640625 -44.71875 C 31.171875 -42.4375 32.4375 -39.367188 32.4375 -35.515625 C 32.4375 -32.515625 31.59375 -29.539062 29.90625 -26.59375 C 28.21875 -23.644531 25.054688 -19.921875 20.421875 -15.421875 L 10.03125 -5.265625 L 10.03125 -5 L 34.453125 -5 Z M 34.453125 0 "/></g></g></g><g fill="#ffffff" fill-opacity="0.302"><g transform="translate(26.90696, 139.321262)"><g><path d="M 34 -36.859375 C 34 -33.890625 33.097656 -31.363281 31.296875 -29.28125 C 29.503906 -27.207031 26.984375 -25.78125 23.734375 -25 L 23.734375 -24.8125 C 27.566406 -24.332031 30.46875 -23.164062 32.4375 -21.3125 C 34.40625 -19.46875 35.390625 -16.972656 35.390625 -13.828125 C 35.390625 -9.265625 33.734375 -5.707031 30.421875 -3.15625 C 27.109375 -0.613281 22.378906 0.65625 16.234375 0.65625 C 11.078125 0.65625 6.507812 -0.203125 2.53125 -1.921875 L 2.53125 -10.453125 C 4.375 -9.523438 6.398438 -8.769531 8.609375 -8.1875 C 10.816406 -7.601562 13 -7.3125 15.15625 -7.3125 C 18.46875 -7.3125 20.914062 -7.875 22.5 -9 C 24.082031 -10.125 24.875 -11.929688 24.875 -14.421875 C 24.875 -16.648438 23.960938 -18.226562 22.140625 -19.15625 C 20.328125 -20.082031 17.425781 -20.546875 13.4375 -20.546875 L 9.84375 -20.546875 L 9.84375 -28.25 L 13.515625 -28.25 C 17.191406 -28.25 19.878906 -28.726562 21.578125 -29.6875 C 23.273438 -30.65625 24.125 -32.304688 24.125 -34.640625 C 24.125 -38.234375 21.875 -40.03125 17.375 -40.03125 C 15.8125 -40.03125 14.222656 -39.769531 12.609375 -39.25 C 11.003906 -38.738281 9.210938 -37.84375 7.234375 -36.5625 L 2.59375 -43.484375 C 6.925781 -46.597656 12.09375 -48.15625 18.09375 -48.15625 C 23 -48.15625 26.875 -47.15625 29.71875 -45.15625 C 32.570312 -43.164062 34 -40.398438 34 -36.859375 Z M 34 -36.859375 "/></g></g></g><g fill="#ffffff" fill-opacity="0.502"><g transform="translate(23.967835, 136.38214)"><g><path d="M 34 -36.859375 C 34 -33.890625 33.097656 -31.363281 31.296875 -29.28125 C 29.503906 -27.207031 26.984375 -25.78125 23.734375 -25 L 23.734375 -24.8125 C 27.566406 -24.332031 30.46875 -23.164062 32.4375 -21.3125 C 34.40625 -19.46875 35.390625 -16.972656 35.390625 -13.828125 C 35.390625 -9.265625 33.734375 -5.707031 30.421875 -3.15625 C 27.109375 -0.613281 22.378906 0.65625 16.234375 0.65625 C 11.078125 0.65625 6.507812 -0.203125 2.53125 -1.921875 L 2.53125 -10.453125 C 4.375 -9.523438 6.398438 -8.769531 8.609375 -8.1875 C 10.816406 -7.601562 13 -7.3125 15.15625 -7.3125 C 18.46875 -7.3125 20.914062 -7.875 22.5 -9 C 24.082031 -10.125 24.875 -11.929688 24.875 -14.421875 C 24.875 -16.648438 23.960938 -18.226562 22.140625 -19.15625 C 20.328125 -20.082031 17.425781 -20.546875 13.4375 -20.546875 L 9.84375 -20.546875 L 9.84375 -28.25 L 13.515625 -28.25 C 17.191406 -28.25 19.878906 -28.726562 21.578125 -29.6875 C 23.273438 -30.65625 24.125 -32.304688 24.125 -34.640625 C 24.125 -38.234375 21.875 -40.03125 17.375 -40.03125 C 15.8125 -40.03125 14.222656 -39.769531 12.609375 -39.25 C 11.003906 -38.738281 9.210938 -37.84375 7.234375 -36.5625 L 2.59375 -43.484375 C 6.925781 -46.597656 12.09375 -48.15625 18.09375 -48.15625 C 23 -48.15625 26.875 -47.15625 29.71875 -45.15625 C 32.570312 -43.164062 34 -40.398438 34 -36.859375 Z M 34 -36.859375 "/></g></g></g><g fill="#ffffff" fill-opacity="1"><g transform="translate(21.028711, 133.443012)"><g><path d="M 34 -36.859375 C 34 -33.890625 33.097656 -31.363281 31.296875 -29.28125 C 29.503906 -27.207031 26.984375 -25.78125 23.734375 -25 L 23.734375 -24.8125 C 27.566406 -24.332031 30.46875 -23.164062 32.4375 -21.3125 C 34.40625 -19.46875 35.390625 -16.972656 35.390625 -13.828125 C 35.390625 -9.265625 33.734375 -5.707031 30.421875 -3.15625 C 27.109375 -0.613281 22.378906 0.65625 16.234375 0.65625 C 11.078125 0.65625 6.507812 -0.203125 2.53125 -1.921875 L 2.53125 -10.453125 C 4.375 -9.523438 6.398438 -8.769531 8.609375 -8.1875 C 10.816406 -7.601562 13 -7.3125 15.15625 -7.3125 C 18.46875 -7.3125 20.914062 -7.875 22.5 -9 C 24.082031 -10.125 24.875 -11.929688 24.875 -14.421875 C 24.875 -16.648438 23.960938 -18.226562 22.140625 -19.15625 C 20.328125 -20.082031 17.425781 -20.546875 13.4375 -20.546875 L 9.84375 -20.546875 L 9.84375 -28.25 L 13.515625 -28.25 C 17.191406 -28.25 19.878906 -28.726562 21.578125 -29.6875 C 23.273438 -30.65625 24.125 -32.304688 24.125 -34.640625 C 24.125 -38.234375 21.875 -40.03125 17.375 -40.03125 C 15.8125 -40.03125 14.222656 -39.769531 12.609375 -39.25 C 11.003906 -38.738281 9.210938 -37.84375 7.234375 -36.5625 L 2.59375 -43.484375 C 6.925781 -46.597656 12.09375 -48.15625 18.09375 -48.15625 C 23 -48.15625 26.875 -47.15625 29.71875 -45.15625 C 32.570312 -43.164062 34 -40.398438 34 -36.859375 Z M 34 -36.859375 "/></g></g></g></svg>