<?xml version="1.0" encoding="UTF-8"?>
<!DOCTYPE svg PUBLIC "-//W3C//DTD SVG 1.1//EN" "http://www.w3.org/Graphics/SVG/1.1/DTD/svg11.dtd">
<svg xmlns="http://www.w3.org/2000/svg" version="1.1" width="500px" height="500px" style="shape-rendering:geometricPrecision; text-rendering:geometricPrecision; image-rendering:optimizeQuality; fill-rule:evenodd; clip-rule:evenodd" xmlns:xlink="http://www.w3.org/1999/xlink">
<g><path style="opacity:0.971" fill="#fecd21" d="M 274.5,42.5 C 275.748,43.3339 276.415,44.6672 276.5,46.5C 275.364,58.8086 274.698,71.1419 274.5,83.5C 224.726,93.6548 175.06,104.321 125.5,115.5C 118.107,146.843 116.607,178.51 121,210.5C 126.143,243.595 135.143,275.595 148,306.5C 142.572,287.785 137.905,268.785 134,249.5C 126.318,207.394 126.818,165.394 135.5,123.5C 197.14,109.705 258.806,96.0388 320.5,82.5C 318.919,94.8134 317.419,107.147 316,119.5C 315.682,121.061 314.849,122.228 313.5,123C 266.38,132.724 219.38,142.89 172.5,153.5C 166.26,190.662 165.093,227.995 169,265.5C 172.309,295.924 181.143,324.591 195.5,351.5C 182.88,353.814 170.214,353.981 157.5,352C 131.78,312.711 112.946,270.211 101,224.5C 86.6155,175.429 81.2822,125.429 85,74.5C 148.252,63.7637 211.419,53.097 274.5,42.5 Z"/></g>
<g><path style="opacity:0.966" fill="#0a9c31" d="M 368.5,117.5 C 397.477,117.436 423.81,125.936 447.5,143C 469.45,163.28 477.284,188.114 471,217.5C 466.229,236.373 458.229,253.707 447,269.5C 424.238,299.273 397.071,324.107 365.5,344C 322.959,370.516 276.959,388.183 227.5,397C 197.419,401.998 167.419,401.664 137.5,396C 116.18,391.259 97.6801,381.426 82,366.5C 65.4297,345.777 60.4297,322.443 67,296.5C 72.9988,275.833 82.6655,257.166 96,240.5C 92.0727,248.355 88.0727,256.355 84,264.5C 68.3594,313.046 85.1927,344.212 134.5,358C 168.208,364.922 201.875,364.255 235.5,356C 296.368,341.067 350.702,313.733 398.5,274C 413.413,260.427 425.246,244.593 434,226.5C 447.308,193.105 440.475,164.605 413.5,141C 399.928,130.546 384.928,122.713 368.5,117.5 Z"/></g>
<g><path style="opacity:0.985" fill="#0c9c32" d="M 356.5,125.5 C 358.527,125.338 360.527,125.505 362.5,126C 363.516,126.519 364.182,127.353 364.5,128.5C 349.98,162.558 338.147,197.558 329,233.5C 322.21,259.81 319.377,286.476 320.5,313.5C 284.453,332.96 246.119,345.627 205.5,351.5C 204.167,351.167 202.833,350.833 201.5,350.5C 182.925,310.962 173.925,269.295 174.5,225.5C 174.8,203.371 176.633,181.371 180,159.5C 238.887,147.993 297.72,136.66 356.5,125.5 Z"/></g>
<g><path style="opacity:1" fill="#eff8f1" d="M 221.5,158.5 C 222.873,158.343 224.207,158.51 225.5,159C 214.143,161.928 203.976,167.095 195,174.5C 190.331,185.507 186.665,196.84 184,208.5C 183.948,194.026 185.448,179.693 188.5,165.5C 199.645,163.272 210.645,160.939 221.5,158.5 Z"/></g>
<g><path style="opacity:1" fill="#fcfefd" d="M 268.5,304.5 C 268.741,306.886 268.075,308.886 266.5,310.5C 261.167,310.833 255.833,311.167 250.5,311.5C 250.448,307.802 250.114,304.135 249.5,300.5C 235.211,300.608 224.378,294.608 217,282.5C 215.228,278.687 214.395,274.687 214.5,270.5C 221.144,269.557 227.811,269.391 234.5,270C 236.095,277.096 240.428,281.263 247.5,282.5C 247.465,273.477 246.965,264.477 246,255.5C 221.102,253.29 210.436,239.957 214,215.5C 218.802,203.542 227.635,196.542 240.5,194.5C 240.5,191.167 240.5,187.833 240.5,184.5C 240.5,183.167 240.5,181.833 240.5,180.5C 243.059,180.802 245.393,180.468 247.5,179.5C 251.198,179.448 254.865,179.114 258.5,178.5C 259.164,183.473 259.497,188.473 259.5,193.5C 277.843,194.848 288.509,204.515 291.5,222.5C 284.83,223.612 278.163,223.612 271.5,222.5C 269.895,217.896 266.895,214.562 262.5,212.5C 262.18,220.782 262.18,229.115 262.5,237.5C 271.621,238.447 280.287,240.947 288.5,245C 297.251,252.587 300.418,262.087 298,273.5C 293.642,288.357 283.809,297.024 268.5,299.5C 268.5,301.167 268.5,302.833 268.5,304.5 Z"/></g>
<g><path style="opacity:1" fill="#9ad6aa" d="M 247.5,179.5 C 245.393,180.468 243.059,180.802 240.5,180.5C 240.5,181.833 240.5,183.167 240.5,184.5C 239.549,183.081 239.216,181.415 239.5,179.5C 242.167,179.5 244.833,179.5 247.5,179.5 Z"/></g>
<g><path style="opacity:1" fill="#20a03c" d="M 239.5,212.5 C 240.5,212.5 241.5,212.5 242.5,212.5C 242.947,219.863 243.614,227.196 244.5,234.5C 235.128,234.301 230.961,229.635 232,220.5C 234.028,217.308 236.528,214.641 239.5,212.5 Z"/></g>
<g><path style="opacity:1" fill="#1a9f39" d="M 265.5,258.5 C 279.468,260.96 282.135,267.793 273.5,279C 271.35,280.411 269.016,281.245 266.5,281.5C 266.32,273.825 265.986,266.158 265.5,258.5 Z"/></g>
<g><path style="opacity:1" fill="#85cd98" d="M 268.5,304.5 C 269.461,306.265 269.795,308.265 269.5,310.5C 268.5,310.5 267.5,310.5 266.5,310.5C 267.5,310.5 268.5,310.5 269.5,310.5C 269.795,308.265 269.461,306.265 268.5,304.5 Z"/></g>
<g><path style="opacity:0.965" fill="#fecd21" d="M 335.5,371.5 C 346.012,385.678 359.012,397.012 374.5,405.5C 348.513,425.554 319.013,436.221 286,437.5C 257.415,436.64 231.915,427.474 209.5,410C 253.806,404.284 295.806,391.45 335.5,371.5 Z"/></g>
<g><path style="opacity:0.902" fill="#d1d3d4" d="M 162.5,432.5 C 228.505,442.417 293.505,456.917 357.5,476C 364.023,477.597 370.023,480.263 375.5,484C 364.722,484.414 354.055,483.414 343.5,481C 287.109,470.652 231.443,457.319 176.5,441C 172.167,439.333 167.833,437.667 163.5,436C 161.627,435.047 161.294,433.88 162.5,432.5 Z"/></g>
</svg>
