<?xml version="1.0" encoding="UTF-8"?>
<!DOCTYPE svg PUBLIC "-//W3C//DTD SVG 1.1//EN" "http://www.w3.org/Graphics/SVG/1.1/DTD/svg11.dtd">
<svg xmlns="http://www.w3.org/2000/svg" version="1.1" width="1563px" height="640px" style="shape-rendering:geometricPrecision; text-rendering:geometricPrecision; image-rendering:optimizeQuality; fill-rule:evenodd; clip-rule:evenodd" xmlns:xlink="http://www.w3.org/1999/xlink">
<g><path style="opacity:0.985" fill="#ffce00" d="M 263.5,8.5 C 264.5,8.5 265.5,8.5 266.5,8.5C 265.726,22.4989 264.892,36.4989 264,50.5C 263.933,53.047 263.099,55.2137 261.5,57C 202.22,70.1539 142.886,82.9872 83.5,95.5C 71.4336,157.474 75.2669,218.474 95,278.5C 100.743,296.063 107.076,313.397 114,330.5C 104.981,302.087 97.9809,273.087 93,243.5C 85.9085,197.199 87.4085,151.199 97.5,105.5C 171.435,88.8495 245.435,72.5161 319.5,56.5C 317.501,72.4958 315.501,88.4958 313.5,104.5C 255.892,116.461 198.392,128.795 141,141.5C 132.457,194.522 132.457,247.522 141,300.5C 146.157,328.629 155.657,355.129 169.5,380C 162.495,381.152 155.328,381.652 148,381.5C 139.45,381.585 130.95,381.085 122.5,380C 79.3989,310.379 51.8989,234.879 40,153.5C 34.4964,117.986 33.1631,82.3192 36,46.5C 111.921,33.7633 187.754,21.0966 263.5,8.5 Z"/></g>
<g><path style="opacity:0.986" fill="#9a37e0" d="M 768.5,37.5 C 785.686,38.3528 795.019,47.3528 796.5,64.5C 796.318,68.5861 795.318,72.4195 793.5,76C 799.448,75.4736 805.448,75.4736 811.5,76C 814.512,76.7804 817.345,77.9471 820,79.5C 824.748,75.581 830.248,73.4143 836.5,73C 844.979,71.9467 853.479,71.1134 862,70.5C 886.263,71.2777 901.596,83.2777 908,106.5C 923.478,100.2 935.478,104.2 944,118.5C 945.99,155.843 930.323,183.177 897,200.5C 890.367,226.782 875.2,246.282 851.5,259C 830.442,265.901 811.942,261.734 796,246.5C 787.05,233.9 784.884,220.233 789.5,205.5C 788.758,204.713 787.925,204.047 787,203.5C 769.476,213.294 752.309,212.794 735.5,202C 729.796,196.796 725.463,190.63 722.5,183.5C 709.611,211.784 687.611,224.284 656.5,221C 639.281,217.821 626.448,208.654 618,193.5C 612.506,180.23 613.506,167.563 621,155.5C 629.331,146.725 639.497,143.558 651.5,146C 659.657,148.325 665.823,153.158 670,160.5C 671.564,154.843 673.064,149.176 674.5,143.5C 662.164,131.969 660.331,118.969 669,104.5C 672.21,100.813 676.044,97.9794 680.5,96C 665.533,80.6698 665.866,65.6698 681.5,51C 684.674,49.2752 688.007,47.9419 691.5,47C 717.312,43.8559 742.979,40.6893 768.5,37.5 Z"/></g>
<g><path style="opacity:0.982" fill="#9936e0" d="M 1029.5,49.5 C 1053.48,52.3073 1062.82,65.474 1057.5,89C 1069.58,86.1379 1079.75,89.3046 1088,98.5C 1092.69,106.711 1093.69,115.377 1091,124.5C 1086.89,147.576 1074.72,164.742 1054.5,176C 1041.2,181.408 1027.7,182.241 1014,178.5C 993.236,189.811 974.236,187.477 957,171.5C 948.454,160.105 945.787,147.438 949,133.5C 952.618,116.407 956.618,99.4071 961,82.5C 971.627,61.268 988.793,52.268 1012.5,55.5C 1017.88,52.2654 1023.54,50.2654 1029.5,49.5 Z"/></g>
<g><path style="opacity:1" fill="#fdfcfe" d="M 765.5,54.5 C 778.312,54.1409 782.146,59.8075 777,71.5C 772.86,73.9954 768.36,75.4954 763.5,76C 752.091,77.0266 740.758,78.5266 729.5,80.5C 727.55,89.0459 725.55,97.5459 723.5,106C 726.338,106.37 729.171,106.203 732,105.5C 739.604,107.144 742.27,111.811 740,119.5C 738.437,122.728 735.937,124.895 732.5,126C 727.882,126.994 723.215,127.494 718.5,127.5C 715.228,141.463 712.061,155.463 709,169.5C 700.407,197.734 681.573,208.901 652.5,203C 636.934,197.114 630.101,185.948 632,169.5C 638.863,159.71 646.53,159.044 655,167.5C 657.188,182.344 665.021,186.177 678.5,179C 682.423,175.323 684.923,170.823 686,165.5C 689.31,153.927 692.143,142.261 694.5,130.5C 684.56,131.726 680.06,127.393 681,117.5C 682.563,114.272 685.063,112.105 688.5,111C 692.17,110.452 695.837,109.952 699.5,109.5C 701.294,100.49 703.627,91.6566 706.5,83C 702.984,82.5007 699.484,82.6674 696,83.5C 687.999,82.1826 684.999,77.5159 687,69.5C 688.981,66.2553 691.814,64.0886 695.5,63C 718.996,60.3352 742.33,57.5018 765.5,54.5 Z"/></g>
<g><path style="opacity:1" fill="#fefcfe" d="M 1027.5,66.5 C 1036.49,65.3327 1041.49,69.1661 1042.5,78C 1038.57,97.2032 1034.41,116.37 1030,135.5C 1028.41,143.91 1031.58,146.41 1039.5,143C 1045.44,139.285 1049.61,134.118 1052,127.5C 1053.49,122.543 1054.82,117.543 1056,112.5C 1059.32,106.092 1064.49,103.925 1071.5,106C 1075.37,109.66 1076.53,114.16 1075,119.5C 1072.28,133.771 1065.78,145.938 1055.5,156C 1044.79,163.262 1033.13,165.595 1020.5,163C 1017.73,161.871 1015.23,160.371 1013,158.5C 1008.77,161.702 1004.27,164.535 999.5,167C 984.464,171.723 973.297,167.223 966,153.5C 964.993,150.425 964.493,147.258 964.5,144C 967.648,124.952 971.814,106.118 977,87.5C 986.585,72.5256 999.918,67.859 1017,73.5C 1020.55,71.3033 1024.05,68.97 1027.5,66.5 Z"/></g>
<g><path style="opacity:1" fill="#fefcfe" d="M 851.5,87.5 C 862.169,86.0791 872.169,87.9125 881.5,93C 891.782,102.33 894.282,113.496 889,126.5C 885.808,133.19 881.641,139.19 876.5,144.5C 881.283,150.281 883.95,156.948 884.5,164.5C 898.084,156.677 906.251,145.011 909,129.5C 911.676,122.079 916.842,119.246 924.5,121C 927.303,122.78 928.969,125.28 929.5,128.5C 925.68,157.965 910.014,177.965 882.5,188.5C 878.973,208.398 869.64,224.898 854.5,238C 842.087,246.72 829.087,247.72 815.5,241C 802.404,230.44 800.237,217.94 809,203.5C 816.102,196.696 824.268,191.53 833.5,188C 841.205,185.265 848.872,182.432 856.5,179.5C 857.661,175.205 857.828,170.871 857,166.5C 856.484,163.966 855.317,161.8 853.5,160C 849.938,160.78 846.271,161.613 842.5,162.5C 833.279,181.944 817.946,190.777 796.5,189C 792.554,187.694 788.888,185.861 785.5,183.5C 775.829,193.228 764.496,196.061 751.5,192C 740.132,185.424 735.632,175.59 738,162.5C 741.774,146.858 745.44,131.192 749,115.5C 755.542,101.143 766.708,94.976 782.5,97C 785.43,97.6063 788.263,98.4396 791,99.5C 796.378,92.4582 803.211,90.6248 811.5,94C 814.466,96.2651 815.799,99.2651 815.5,103C 811.595,123.434 807.261,143.767 802.5,164C 802.849,169.09 805.515,170.757 810.5,169C 821.539,162.759 826.706,153.259 826,140.5C 833.826,127.062 844.659,124.062 858.5,131.5C 863.097,127.384 865.764,122.217 866.5,116C 866.646,113.966 865.98,112.299 864.5,111C 854.139,110.893 843.805,111.226 833.5,112C 827.882,107.914 826.049,102.414 828,95.5C 829.251,92.6193 831.417,90.786 834.5,90C 840.348,89.411 846.014,88.5776 851.5,87.5 Z"/></g>
<g><path style="opacity:1" fill="#9b39e0" d="M 1004.5,91.5 C 1012.43,93.3311 1015.26,98.3311 1013,106.5C 1010.46,118.196 1007.79,129.862 1005,141.5C 1002.21,147.481 997.709,149.481 991.5,147.5C 989.609,144.038 989.109,140.372 990,136.5C 992.716,125.252 995.05,113.918 997,102.5C 998.043,97.7207 1000.54,94.054 1004.5,91.5 Z"/></g>
<g><path style="opacity:0.998" fill="#009d1f" d="M 377.5,98.5 C 406.548,98.4306 433.881,105.597 459.5,120C 498.386,146.659 511.22,182.826 498,228.5C 489.961,251.918 478.295,273.252 463,292.5C 424.534,338.165 378.034,373.331 323.5,398C 277.195,419.878 228.528,433.212 177.5,438C 143.7,441.207 110.7,437.541 78.5,427C 22.5286,404.558 2.02864,364.058 17,305.5C 24.3889,283.379 35.3889,263.379 50,245.5C 45.8591,253.721 41.5257,262.054 37,270.5C 14.4973,325.652 30.9973,363.819 86.5,385C 119.785,394.28 153.451,396.28 187.5,391C 227.09,384.937 265.09,373.603 301.5,357C 339.808,339.862 375.141,318.196 407.5,292C 427.797,274.709 443.964,254.209 456,230.5C 471.9,192.278 465.067,158.778 435.5,130C 418.384,115.605 399.05,105.105 377.5,98.5 Z"/></g>
<g><path style="opacity:0.999" fill="#019d21" d="M 366.5,107.5 C 368.924,108.03 371.257,108.864 373.5,110C 348.333,166.172 330.833,224.672 321,285.5C 319.236,302.119 318.236,318.785 318,335.5C 273.571,359.032 226.404,374.032 176.5,380.5C 151.013,323.916 140.513,264.583 145,202.5C 146.212,184.097 148.045,165.764 150.5,147.5C 222.739,134.784 294.739,121.45 366.5,107.5 Z"/></g>
<g><path style="opacity:1" fill="#9c3be0" d="M 775.5,117.5 C 784.965,117.372 788.465,122.039 786,131.5C 783.967,143.338 781.3,155.004 778,166.5C 775.826,170.679 772.493,173.346 768,174.5C 766.289,174.561 764.956,173.894 764,172.5C 763.192,170.577 762.692,168.577 762.5,166.5C 765.064,153.512 767.564,140.512 770,127.5C 771.07,123.689 772.903,120.356 775.5,117.5 Z"/></g>
<g><path style="opacity:1" fill="#f6fcf8" d="M 156.5,204.5 C 155.566,203.432 155.232,202.099 155.5,200.5C 156.428,185.413 158.094,170.413 160.5,155.5C 174.84,153.109 189.174,150.943 203.5,149C 191.597,152.703 180.43,157.87 170,164.5C 164,177.334 159.5,190.667 156.5,204.5 Z"/></g>
<g><path style="opacity:0.989" fill="#9936e0" d="M 1196.5,156.5 C 1214.92,155.473 1228.76,162.807 1238,178.5C 1240.44,184.272 1241.94,190.272 1242.5,196.5C 1240.97,210.156 1238.64,223.656 1235.5,237C 1262.31,238.485 1281.48,251.318 1293,275.5C 1302.73,240.777 1325.56,221.61 1361.5,218C 1369.51,217.735 1377.51,217.735 1385.5,218C 1404.1,204.871 1423.1,204.204 1442.5,216C 1452.92,224.511 1457.92,235.511 1457.5,249C 1455.92,263.334 1453.75,277.501 1451,291.5C 1466.78,274.543 1484.95,271.377 1505.5,282C 1519.01,293.545 1523.51,308.045 1519,325.5C 1514.95,358.448 1500.78,385.948 1476.5,408C 1450.14,427.771 1421.14,432.937 1389.5,423.5C 1366.98,439.891 1342.48,443.558 1316,434.5C 1286.85,453.622 1256.68,455.455 1225.5,440C 1214.72,432.961 1206.89,423.461 1202,411.5C 1200.46,425.007 1196.46,437.673 1190,449.5C 1178.17,464.743 1162.83,470.076 1144,465.5C 1125.49,473.701 1106.32,475.867 1086.5,472C 1066.52,467.016 1052.36,455.183 1044,436.5C 1042.66,452.879 1036.49,467.046 1025.5,479C 1013.67,489.209 1000,493.043 984.5,490.5C 964.231,497.932 943.897,498.265 923.5,491.5C 912.031,501.071 899.697,509.405 886.5,516.5C 878.515,556.003 859.182,588.503 828.5,614C 795.194,636.239 761.861,636.573 728.5,615C 707.992,597.483 700.158,575.316 705,548.5C 706.244,543.1 708.077,537.934 710.5,533C 682.841,537.391 656.841,532.724 632.5,519C 608.863,501.546 598.363,478.046 601,448.5C 602.771,437.478 604.605,426.478 606.5,415.5C 602.663,415.562 599.163,416.562 596,418.5C 591.333,441.169 586.666,463.836 582,486.5C 564.459,543.369 525.959,568.869 466.5,563C 434.589,557.084 413.089,538.917 402,508.5C 395.172,484.93 401.339,465.764 420.5,451C 443.568,439.927 463.734,443.76 481,462.5C 484.852,467.891 487.019,473.891 487.5,480.5C 493.59,479.919 497.423,476.586 499,470.5C 502.692,455.204 506.192,439.871 509.5,424.5C 488.511,412.234 482.011,394.567 490,371.5C 497.591,357.92 509.091,349.754 524.5,347C 525.227,344.876 525.894,342.709 526.5,340.5C 500.173,331.514 490.34,313.514 497,286.5C 503.937,271.244 515.77,262.411 532.5,260C 575.833,253.667 619.167,247.333 662.5,241C 671.883,239.379 680.716,240.879 689,245.5C 703.057,227.471 721.557,219.971 744.5,223C 769.707,229.475 778.54,244.975 771,269.5C 756.645,286.354 742.478,303.354 728.5,320.5C 732.984,322.575 737.317,324.908 741.5,327.5C 746.936,316.228 755.603,308.728 767.5,305C 787.236,301.419 807.07,298.585 827,296.5C 852.425,297.546 873.092,307.879 889,327.5C 892.311,333.261 895.144,339.261 897.5,345.5C 899.934,334.166 902.434,322.833 905,311.5C 909.702,296.799 919.202,286.633 933.5,281C 914.869,264.051 911.036,244.217 922,221.5C 936.457,201.088 955.623,194.921 979.5,203C 1004.94,217.213 1012.44,238.046 1002,265.5C 995.879,276.958 986.713,284.791 974.5,289C 978.759,292.358 981.926,296.525 984,301.5C 988.385,283.049 999.885,271.882 1018.5,268C 1025.52,267.279 1032.52,267.446 1039.5,268.5C 1051,263.625 1063,260.959 1075.5,260.5C 1104.44,261.464 1124.78,275.131 1136.5,301.5C 1143.86,266.221 1151.02,230.888 1158,195.5C 1162.42,173.912 1175.26,160.912 1196.5,156.5 Z M 650.5,322.5 C 652.085,323.474 653.085,324.974 653.5,327C 644.765,332.897 636.765,339.73 629.5,347.5C 624.256,342.711 618.256,339.211 611.5,337C 612.289,334.733 612.956,332.4 613.5,330C 613.905,329.055 614.572,328.388 615.5,328C 627.358,326.475 639.024,324.641 650.5,322.5 Z"/></g>
<g><path style="opacity:1" fill="#fcfefd" d="M 233.5,172.5 C 237.5,172.5 241.5,172.5 245.5,172.5C 245.907,178.161 246.24,183.828 246.5,189.5C 260.722,190.525 271.888,196.859 280,208.5C 282.747,213.489 284.247,218.822 284.5,224.5C 276.506,225.227 268.506,225.893 260.5,226.5C 259.503,219.335 255.669,214.335 249,211.5C 249.331,222.157 249.831,232.823 250.5,243.5C 261.519,244.004 271.852,246.837 281.5,252C 296.515,268.373 297.348,285.54 284,303.5C 276.683,310.908 267.85,315.242 257.5,316.5C 257.5,321.167 257.5,325.833 257.5,330.5C 249.817,330.523 242.15,330.857 234.5,331.5C 234.797,327.233 234.464,323.066 233.5,319C 216.247,318.799 203.414,311.299 195,296.5C 193.131,291.655 191.965,286.655 191.5,281.5C 199.53,281.442 207.53,281.275 215.5,281C 217.786,290.121 223.453,295.621 232.5,297.5C 231.391,286.529 230.558,275.529 230,264.5C 213.755,264.212 201.422,257.212 193,243.5C 185.045,215.41 195.212,197.743 223.5,190.5C 223.553,184.804 223.22,179.138 222.5,173.5C 226.371,173.815 230.038,173.482 233.5,172.5 Z"/></g>
<g><path style="opacity:1" fill="#fefdfe" d="M 1197.5,177.5 C 1213.98,177.145 1221.81,185.145 1221,201.5C 1217.26,222.023 1213.43,242.523 1209.5,263C 1209.83,263.5 1210.17,264 1210.5,264.5C 1232.85,253.604 1252.35,257.27 1269,275.5C 1276.06,286.15 1278.39,297.817 1276,310.5C 1270.93,335.62 1266.09,360.787 1261.5,386C 1263,393.109 1267.33,395.443 1274.5,393C 1284.33,388.5 1291.5,381.333 1296,371.5C 1302.37,340.925 1308.37,310.258 1314,279.5C 1322.17,253.063 1340.17,239.396 1368,238.5C 1375.74,238.485 1383.24,239.818 1390.5,242.5C 1394.28,238.173 1398.62,234.34 1403.5,231C 1415.32,225.898 1425.49,228.065 1434,237.5C 1435.91,241.259 1436.75,245.259 1436.5,249.5C 1430.48,284.573 1423.98,319.573 1417,354.5C 1415.02,371.598 1421.52,375.765 1436.5,367C 1446.65,359.565 1453.48,349.731 1457,337.5C 1459.95,328.312 1462.29,318.978 1464,309.5C 1471.26,296.955 1481.42,293.788 1494.5,300C 1496.43,302.258 1497.93,304.758 1499,307.5C 1498.48,335.405 1489.81,360.405 1473,382.5C 1452,404.374 1426.83,411.541 1397.5,404C 1393.15,402.477 1389.48,399.977 1386.5,396.5C 1368.74,417.06 1347.07,422.893 1321.5,414C 1318.66,412.414 1315.99,410.58 1313.5,408.5C 1293.63,428.134 1270.3,433.967 1243.5,426C 1224.4,415.974 1216.24,400.141 1219,378.5C 1223.45,353.917 1228.28,329.417 1233.5,305C 1231.38,296.581 1226.05,293.581 1217.5,296C 1208.83,301.002 1202.67,308.169 1199,317.5C 1191.74,353.113 1184.74,388.779 1178,424.5C 1174.82,441.158 1164.99,447.992 1148.5,445C 1146.73,443.702 1144.9,442.536 1143,441.5C 1128.66,449.959 1113.16,453.793 1096.5,453C 1077.9,449.397 1066.07,438.563 1061,420.5C 1060.33,413.167 1060.33,405.833 1061,398.5C 1065.76,375.372 1070.26,352.205 1074.5,329C 1074.24,319.848 1069.57,316.514 1060.5,319C 1050.22,325.013 1043.39,333.846 1040,345.5C 1033.21,379.807 1026.54,414.14 1020,448.5C 1014.87,463.638 1004.37,470.804 988.5,470C 986.385,469.443 984.385,468.609 982.5,467.5C 965.835,476.287 948.502,477.787 930.5,472C 926.587,469.698 922.587,468.031 918.5,467C 903.944,482.283 886.944,494.117 867.5,502.5C 862.693,537.615 847.693,567.448 822.5,592C 799.294,611.467 773.96,614.801 746.5,602C 729.43,590.35 722.264,574.184 725,553.5C 728.566,539.935 736.066,529.102 747.5,521C 756.684,514.905 766.351,509.572 776.5,505C 791.344,499.609 805.844,493.442 820,486.5C 822.621,473.606 820.121,461.773 812.5,451C 807.621,452.626 802.621,454.293 797.5,456C 794.833,456.333 792.167,456.667 789.5,457C 770.723,487.746 743.39,506.08 707.5,512C 682.188,516.94 659.188,511.94 638.5,497C 624.85,483.719 619.35,467.552 622,448.5C 626,427.167 630,405.833 634,384.5C 647.279,349.905 672.446,334.072 709.5,337C 740.489,344.798 754.322,364.631 751,396.5C 745.5,424.667 728.667,441.5 700.5,447C 692.833,447.667 685.167,447.667 677.5,447C 674.256,446.03 671.09,444.863 668,443.5C 667.5,443.833 667,444.167 666.5,444.5C 661.992,461.811 668.492,472.477 686,476.5C 718.307,478.183 742.641,465.183 759,437.5C 758.874,405.628 774.707,391.128 806.5,394C 811.403,394.869 815.903,396.702 820,399.5C 829.481,389.721 833.814,378.055 833,364.5C 830.323,360.662 826.656,358.995 822,359.5C 808.851,361.426 795.684,363.259 782.5,365C 771.126,366.554 763.959,361.721 761,350.5C 757.866,338.269 762.033,329.769 773.5,325C 794.31,320.645 815.31,318.645 836.5,319C 863.401,323.891 877.401,339.891 878.5,367C 878.725,379.398 875.558,390.898 869,401.5C 863.819,408.677 858.652,415.844 853.5,423C 862.965,432.865 868.298,444.698 869.5,458.5C 885.374,448.79 897.207,435.457 905,418.5C 911.652,385.893 917.985,353.226 924,320.5C 929.784,302.692 941.284,296.858 958.5,303C 961.762,305.592 964.262,308.759 966,312.5C 966.711,319.215 966.378,325.882 965,332.5C 958.512,364.105 952.346,395.772 946.5,427.5C 949.199,440.093 956.199,442.926 967.5,436C 974.524,430.633 979.691,423.8 983,415.5C 990.459,378.536 997.793,341.536 1005,304.5C 1007.82,293.08 1015.16,287.746 1027,288.5C 1032.69,287.762 1037.52,289.429 1041.5,293.5C 1059.6,279.658 1078.94,277.824 1099.5,288C 1113.93,297.698 1120.1,311.198 1118,328.5C 1113.29,354.365 1108.46,380.199 1103.5,406C 1102.49,414.664 1106.16,417.998 1114.5,416C 1121.72,413.777 1127.56,409.611 1132,403.5C 1137,396.503 1140.66,388.836 1143,380.5C 1154.62,319.423 1166.62,258.423 1179,197.5C 1181.61,187.391 1187.78,180.725 1197.5,177.5 Z"/></g>
<g><path style="opacity:1" fill="#9c3ce0" d="M 851.5,201.5 C 852.376,201.369 853.043,201.702 853.5,202.5C 850.957,211.859 845.623,219.026 837.5,224C 829.069,225.567 826.569,222.4 830,214.5C 836.515,208.997 843.682,204.663 851.5,201.5 Z"/></g>
<g><path style="opacity:1" fill="#5fcf97" d="M 155.5,200.5 C 155.232,202.099 155.566,203.432 156.5,204.5C 156.291,205.922 155.791,207.255 155,208.5C 154.199,205.633 154.366,202.966 155.5,200.5 Z"/></g>
<g><path style="opacity:1" fill="#0da12c" d="M 222.5,212.5 C 223.5,212.5 224.5,212.5 225.5,212.5C 226.442,221.476 227.109,230.476 227.5,239.5C 214.525,237.535 210.359,230.535 215,218.5C 217.478,216.361 219.978,214.361 222.5,212.5 Z"/></g>
<g><path style="opacity:1" fill="#fefcfe" d="M 954.5,220.5 C 975.644,218.813 985.81,228.48 985,249.5C 981.041,264.065 971.541,270.565 956.5,269C 941.839,264.201 935.339,254.035 937,238.5C 940.379,229.956 946.212,223.956 954.5,220.5 Z"/></g>
<g><path style="opacity:1" fill="#fefdfe" d="M 725.5,243.5 C 730.844,243.334 736.177,243.501 741.5,244C 749.138,245.613 752.971,250.113 753,257.5C 736.997,277.983 720.164,297.817 702.5,317C 694.088,322.338 685.088,324.005 675.5,322C 672.03,318.663 671.53,314.83 674,310.5C 683.584,295.668 692.917,280.668 702,265.5C 705.468,260.066 709.301,254.899 713.5,250C 717.434,247.536 721.434,245.369 725.5,243.5 Z"/></g>
<g><path style="opacity:1" fill="#fefdfe" d="M 661.5,261.5 C 678.124,259.63 686.29,266.963 686,283.5C 682.479,292.348 675.979,297.515 666.5,299C 642.831,302.568 619.164,306.068 595.5,309.5C 592.5,326.168 589.5,342.835 586.5,359.5C 591.812,358.741 597.145,358.075 602.5,357.5C 609.139,357.571 613.973,360.571 617,366.5C 620.829,379.341 616.662,388.507 604.5,394C 595.899,395.954 587.233,397.454 578.5,398.5C 572.652,427.895 566.485,457.228 560,486.5C 544.494,529.349 513.994,547.849 468.5,542C 445.52,537.016 430.02,523.516 422,501.5C 417.122,486.106 421.622,474.606 435.5,467C 455.548,463.057 466.382,471.223 468,491.5C 472.494,498.25 478.827,501.916 487,502.5C 504.802,500.704 515.802,491.037 520,473.5C 525.223,451.051 530.056,428.551 534.5,406C 529.5,405.667 524.5,405.333 519.5,405C 510.053,400.945 506.22,393.778 508,383.5C 511.774,374.356 518.607,369.189 528.5,368C 533.156,367.335 537.823,366.835 542.5,366.5C 545.833,349.833 549.167,333.167 552.5,316.5C 543.858,317.634 535.192,318.134 526.5,318C 515.029,310.915 512.529,301.415 519,289.5C 522.834,285.007 527.667,282.174 533.5,281C 576.373,274.901 619.039,268.401 661.5,261.5 Z"/></g>
<g><path style="opacity:1" fill="#099f29" d="M 253.5,267.5 C 266.458,269.261 270.958,276.261 267,288.5C 263.898,292.8 259.731,295.133 254.5,295.5C 254.255,286.163 253.922,276.829 253.5,267.5 Z"/></g>
<g><path style="opacity:1" fill="#9a37e0" d="M 1366.5,276.5 C 1373.39,275.286 1378.55,277.619 1382,283.5C 1383.56,287.007 1384.39,290.673 1384.5,294.5C 1381.2,318.323 1377.03,341.989 1372,365.5C 1367.94,375.926 1360.44,381.093 1349.5,381C 1344.68,377.848 1342.68,373.348 1343.5,367.5C 1346.57,342.723 1350.41,318.056 1355,293.5C 1356.87,286.413 1360.7,280.746 1366.5,276.5 Z"/></g>
<g><path style="opacity:1" fill="#9a38e0" d="M 689.5,372.5 C 704.921,372.439 711.088,380.106 708,395.5C 705.082,403.716 699.249,408.216 690.5,409C 685.833,409.667 681.167,409.667 676.5,409C 674.393,397.871 676.56,387.371 683,377.5C 685.326,375.934 687.492,374.268 689.5,372.5 Z"/></g>
<g><path style="opacity:0.985" fill="#ffce00" d="M 336.5,404.5 C 337.822,404.33 338.989,404.663 340,405.5C 351.358,422.521 366.191,435.688 384.5,445C 353.454,468.406 318.454,481.24 279.5,483.5C 244.629,482.713 213.629,471.546 186.5,450C 239.004,443.534 289.004,428.368 336.5,404.5 Z"/></g>
<g><path style="opacity:0.955" fill="#d3d4d6" d="M 128.5,478.5 C 141.955,478.827 155.288,480.327 168.5,483C 238.859,495.923 308.192,512.923 376.5,534C 379.938,534.92 382.938,536.587 385.5,539C 383.884,540.077 382.051,540.577 380,540.5C 303.719,528.638 228.553,511.805 154.5,490C 146.758,487.531 139.092,484.864 131.5,482C 129.574,481.578 128.574,480.411 128.5,478.5 Z"/></g>
<g><path style="opacity:1" fill="#9b39e0" d="M 812.5,528.5 C 813.497,528.47 814.164,528.97 814.5,530C 811.663,541.841 806.33,552.341 798.5,561.5C 793.386,567.282 787.053,570.949 779.5,572.5C 772.602,571.913 769.268,568.08 769.5,561C 771.495,553.656 775.829,547.989 782.5,544C 792.436,538.533 802.436,533.367 812.5,528.5 Z"/></g>
</svg>
