<svg width="18" height="18" viewBox="0 0 18 18" fill="none" xmlns="http://www.w3.org/2000/svg">
    <path d="M2.47852 6.98047L1.47851 1.48047L3.47851 1.48047L7.47852 2.48047L10.4785 3.98047L14.9785 4.98047L16.4785 5.98047L15.4785 6.98047L9.47852 9.48047L8.47852 11.9805L6 16.5L2.47852 6.98047Z" fill="#F7F1FE"/>
    <path fill-rule="evenodd" clip-rule="evenodd" d="M0.0939624 2.60014C-0.38627 1.0634 1.05423 -0.388256 2.59764 0.0940608L15.9989 4.28194C17.8175 4.85027 17.8848 7.39552 16.1039 8.06335L10.6813 10.0968C10.4109 10.1982 10.1975 10.4116 10.0961 10.682L8.06268 16.1046C7.39425 17.887 4.84889 17.8159 4.28106 15.9989L0.0939624 2.60014ZM15.4016 6.19069L2.00292 2.00359L6.19002 15.4023L8.22348 9.97976C8.5277 9.16849 9.16782 8.52837 9.97909 8.22415L15.4016 6.19069Z" fill="#0f172a"/>
</svg>
    