<svg width="42" height="4" viewBox="0 0 42 4" fill="none" xmlns="http://www.w3.org/2000/svg">
<path d="M1.79941 3.92741L1.16141 3.45441C1.11008 3.41774 1.08075 3.36641 1.07341 3.30041C1.06608 3.22707 1.07708 3.16841 1.10641 3.12441C1.10641 3.11707 1.12841 3.09141 1.17241 3.04741L1.92041 2.38741L0.919414 2.28841C0.890081 2.28107 0.868081 2.27741 0.853414 2.27741C0.846081 2.27007 0.838747 2.26641 0.831414 2.26641C0.780081 2.25174 0.736081 2.21507 0.699414 2.15641C0.670081 2.09041 0.662747 2.02441 0.677414 1.95841L0.930414 1.19941C0.945081 1.14074 0.985414 1.09674 1.05141 1.06741C1.11741 1.03807 1.17608 1.03074 1.22741 1.04541C1.24208 1.04541 1.27141 1.06007 1.31541 1.08941L2.18441 1.59541L1.96441 0.616406C1.95708 0.587072 1.95341 0.568739 1.95341 0.561406C1.95341 0.546739 1.95341 0.535739 1.95341 0.528406C1.95341 0.469739 1.97541 0.414739 2.01941 0.363406C2.07075 0.312073 2.12941 0.286406 2.19541 0.286406H2.99841C3.06441 0.286406 3.11941 0.312073 3.16341 0.363406C3.21475 0.414739 3.24041 0.469739 3.24041 0.528406C3.24041 0.535739 3.24041 0.546739 3.24041 0.561406C3.24041 0.568739 3.23675 0.587072 3.22941 0.616406L2.99841 1.60641L3.87841 1.08941C3.92975 1.06007 3.95908 1.04541 3.96641 1.04541C4.02508 1.03074 4.08375 1.03807 4.14241 1.06741C4.20841 1.09674 4.24875 1.14074 4.26341 1.19941L4.51641 1.95841C4.53108 2.02441 4.52375 2.09041 4.49441 2.15641C4.46508 2.21507 4.42108 2.25174 4.36241 2.26641C4.35508 2.26641 4.34408 2.27007 4.32941 2.27741C4.32208 2.27741 4.30375 2.28107 4.27441 2.28841L3.26241 2.38741L4.02141 3.04741C4.06541 3.09141 4.08741 3.11707 4.08741 3.12441C4.12408 3.16841 4.13875 3.22707 4.13141 3.30041C4.12408 3.36641 4.09108 3.41774 4.03241 3.45441L3.39441 3.92741C3.33575 3.95674 3.27341 3.96774 3.20741 3.96041C3.14141 3.95307 3.09008 3.92374 3.05341 3.87241C3.05341 3.86507 3.04975 3.85774 3.04241 3.85041C3.03508 3.83574 3.02408 3.81741 3.00941 3.79541L2.60241 2.86041L2.19541 3.79541C2.18808 3.81741 2.17708 3.83574 2.16241 3.85041C2.15508 3.85774 2.14775 3.86507 2.14041 3.87241C2.11108 3.92374 2.05975 3.95307 1.98641 3.96041C1.92041 3.96774 1.85808 3.95674 1.79941 3.92741ZM6.69785 3.92741L6.05985 3.45441C6.00852 3.41774 5.97918 3.36641 5.97185 3.30041C5.96452 3.22707 5.97552 3.16841 6.00485 3.12441C6.00485 3.11707 6.02685 3.09141 6.07085 3.04741L6.81885 2.38741L5.81785 2.28841C5.78852 2.28107 5.76652 2.27741 5.75185 2.27741C5.74452 2.27007 5.73718 2.26641 5.72985 2.26641C5.67852 2.25174 5.63452 2.21507 5.59785 2.15641C5.56852 2.09041 5.56118 2.02441 5.57585 1.95841L5.82885 1.19941C5.84352 1.14074 5.88385 1.09674 5.94985 1.06741C6.01585 1.03807 6.07452 1.03074 6.12585 1.04541C6.14052 1.04541 6.16985 1.06007 6.21385 1.08941L7.08285 1.59541L6.86285 0.616406C6.85552 0.587072 6.85185 0.568739 6.85185 0.561406C6.85185 0.546739 6.85185 0.535739 6.85185 0.528406C6.85185 0.469739 6.87385 0.414739 6.91785 0.363406C6.96918 0.312073 7.02785 0.286406 7.09385 0.286406H7.89685C7.96285 0.286406 8.01785 0.312073 8.06185 0.363406C8.11319 0.414739 8.13885 0.469739 8.13885 0.528406C8.13885 0.535739 8.13885 0.546739 8.13885 0.561406C8.13885 0.568739 8.13519 0.587072 8.12785 0.616406L7.89685 1.60641L8.77685 1.08941C8.82819 1.06007 8.85752 1.04541 8.86485 1.04541C8.92352 1.03074 8.98219 1.03807 9.04085 1.06741C9.10685 1.09674 9.14719 1.14074 9.16185 1.19941L9.41485 1.95841C9.42952 2.02441 9.42219 2.09041 9.39285 2.15641C9.36352 2.21507 9.31952 2.25174 9.26085 2.26641C9.25352 2.26641 9.24252 2.27007 9.22785 2.27741C9.22052 2.27741 9.20219 2.28107 9.17285 2.28841L8.16085 2.38741L8.91985 3.04741C8.96385 3.09141 8.98585 3.11707 8.98585 3.12441C9.02252 3.16841 9.03719 3.22707 9.02985 3.30041C9.02252 3.36641 8.98952 3.41774 8.93085 3.45441L8.29285 3.92741C8.23418 3.95674 8.17185 3.96774 8.10585 3.96041C8.03985 3.95307 7.98852 3.92374 7.95185 3.87241C7.95185 3.86507 7.94818 3.85774 7.94085 3.85041C7.93352 3.83574 7.92252 3.81741 7.90785 3.79541L7.50085 2.86041L7.09385 3.79541C7.08652 3.81741 7.07552 3.83574 7.06085 3.85041C7.05352 3.85774 7.04619 3.86507 7.03885 3.87241C7.00952 3.92374 6.95818 3.95307 6.88485 3.96041C6.81885 3.96774 6.75652 3.95674 6.69785 3.92741ZM11.5963 3.92741L10.9583 3.45441C10.907 3.41774 10.8776 3.36641 10.8703 3.30041C10.863 3.22707 10.874 3.16841 10.9033 3.12441C10.9033 3.11707 10.9253 3.09141 10.9693 3.04741L11.7173 2.38741L10.7163 2.28841C10.687 2.28107 10.665 2.27741 10.6503 2.27741C10.643 2.27007 10.6356 2.26641 10.6283 2.26641C10.577 2.25174 10.533 2.21507 10.4963 2.15641C10.467 2.09041 10.4596 2.02441 10.4743 1.95841L10.7273 1.19941C10.742 1.14074 10.7823 1.09674 10.8483 1.06741C10.9143 1.03807 10.973 1.03074 11.0243 1.04541C11.039 1.04541 11.0683 1.06007 11.1123 1.08941L11.9813 1.59541L11.7613 0.616406C11.754 0.587072 11.7503 0.568739 11.7503 0.561406C11.7503 0.546739 11.7503 0.535739 11.7503 0.528406C11.7503 0.469739 11.7723 0.414739 11.8163 0.363406C11.8676 0.312073 11.9263 0.286406 11.9923 0.286406H12.7953C12.8613 0.286406 12.9163 0.312073 12.9603 0.363406C13.0116 0.414739 13.0373 0.469739 13.0373 0.528406C13.0373 0.535739 13.0373 0.546739 13.0373 0.561406C13.0373 0.568739 13.0336 0.587072 13.0263 0.616406L12.7953 1.60641L13.6753 1.08941C13.7266 1.06007 13.756 1.04541 13.7633 1.04541C13.822 1.03074 13.8806 1.03807 13.9393 1.06741C14.0053 1.09674 14.0456 1.14074 14.0603 1.19941L14.3133 1.95841C14.328 2.02441 14.3206 2.09041 14.2913 2.15641C14.262 2.21507 14.218 2.25174 14.1593 2.26641C14.152 2.26641 14.141 2.27007 14.1263 2.27741C14.119 2.27741 14.1006 2.28107 14.0713 2.28841L13.0593 2.38741L13.8183 3.04741C13.8623 3.09141 13.8843 3.11707 13.8843 3.12441C13.921 3.16841 13.9356 3.22707 13.9283 3.30041C13.921 3.36641 13.888 3.41774 13.8293 3.45441L13.1913 3.92741C13.1326 3.95674 13.0703 3.96774 13.0043 3.96041C12.9383 3.95307 12.887 3.92374 12.8503 3.87241C12.8503 3.86507 12.8466 3.85774 12.8393 3.85041C12.832 3.83574 12.821 3.81741 12.8063 3.79541L12.3993 2.86041L11.9923 3.79541C11.985 3.81741 11.974 3.83574 11.9593 3.85041C11.952 3.85774 11.9446 3.86507 11.9373 3.87241C11.908 3.92374 11.8566 3.95307 11.7833 3.96041C11.7173 3.96774 11.655 3.95674 11.5963 3.92741ZM16.4947 3.92741L15.8567 3.45441C15.8054 3.41774 15.7761 3.36641 15.7687 3.30041C15.7614 3.22707 15.7724 3.16841 15.8017 3.12441C15.8017 3.11707 15.8237 3.09141 15.8677 3.04741L16.6157 2.38741L15.6147 2.28841C15.5854 2.28107 15.5634 2.27741 15.5487 2.27741C15.5414 2.27007 15.5341 2.26641 15.5267 2.26641C15.4754 2.25174 15.4314 2.21507 15.3947 2.15641C15.3654 2.09041 15.3581 2.02441 15.3727 1.95841L15.6257 1.19941C15.6404 1.14074 15.6807 1.09674 15.7467 1.06741C15.8127 1.03807 15.8714 1.03074 15.9227 1.04541C15.9374 1.04541 15.9667 1.06007 16.0107 1.08941L16.8797 1.59541L16.6597 0.616406C16.6524 0.587072 16.6487 0.568739 16.6487 0.561406C16.6487 0.546739 16.6487 0.535739 16.6487 0.528406C16.6487 0.469739 16.6707 0.414739 16.7147 0.363406C16.7661 0.312073 16.8247 0.286406 16.8907 0.286406H17.6937C17.7597 0.286406 17.8147 0.312073 17.8587 0.363406C17.9101 0.414739 17.9357 0.469739 17.9357 0.528406C17.9357 0.535739 17.9357 0.546739 17.9357 0.561406C17.9357 0.568739 17.9321 0.587072 17.9247 0.616406L17.6937 1.60641L18.5737 1.08941C18.6251 1.06007 18.6544 1.04541 18.6617 1.04541C18.7204 1.03074 18.7791 1.03807 18.8377 1.06741C18.9037 1.09674 18.9441 1.14074 18.9587 1.19941L19.2117 1.95841C19.2264 2.02441 19.2191 2.09041 19.1897 2.15641C19.1604 2.21507 19.1164 2.25174 19.0577 2.26641C19.0504 2.26641 19.0394 2.27007 19.0247 2.27741C19.0174 2.27741 18.9991 2.28107 18.9697 2.28841L17.9577 2.38741L18.7167 3.04741C18.7607 3.09141 18.7827 3.11707 18.7827 3.12441C18.8194 3.16841 18.8341 3.22707 18.8267 3.30041C18.8194 3.36641 18.7864 3.41774 18.7277 3.45441L18.0897 3.92741C18.0311 3.95674 17.9687 3.96774 17.9027 3.96041C17.8367 3.95307 17.7854 3.92374 17.7487 3.87241C17.7487 3.86507 17.7451 3.85774 17.7377 3.85041C17.7304 3.83574 17.7194 3.81741 17.7047 3.79541L17.2977 2.86041L16.8907 3.79541C16.8834 3.81741 16.8724 3.83574 16.8577 3.85041C16.8504 3.85774 16.8431 3.86507 16.8357 3.87241C16.8064 3.92374 16.7551 3.95307 16.6817 3.96041C16.6157 3.96774 16.5534 3.95674 16.4947 3.92741ZM21.3932 3.92741L20.7552 3.45441C20.7038 3.41774 20.6745 3.36641 20.6672 3.30041C20.6598 3.22707 20.6708 3.16841 20.7002 3.12441C20.7002 3.11707 20.7222 3.09141 20.7662 3.04741L21.5142 2.38741L20.5132 2.28841C20.4838 2.28107 20.4618 2.27741 20.4472 2.27741C20.4398 2.27007 20.4325 2.26641 20.4252 2.26641C20.3738 2.25174 20.3298 2.21507 20.2932 2.15641C20.2638 2.09041 20.2565 2.02441 20.2712 1.95841L20.5242 1.19941C20.5388 1.14074 20.5792 1.09674 20.6452 1.06741C20.7112 1.03807 20.7698 1.03074 20.8212 1.04541C20.8358 1.04541 20.8652 1.06007 20.9092 1.08941L21.7782 1.59541L21.5582 0.616406C21.5508 0.587072 21.5472 0.568739 21.5472 0.561406C21.5472 0.546739 21.5472 0.535739 21.5472 0.528406C21.5472 0.469739 21.5692 0.414739 21.6132 0.363406C21.6645 0.312073 21.7232 0.286406 21.7892 0.286406H22.5922C22.6582 0.286406 22.7132 0.312073 22.7572 0.363406C22.8085 0.414739 22.8342 0.469739 22.8342 0.528406C22.8342 0.535739 22.8342 0.546739 22.8342 0.561406C22.8342 0.568739 22.8305 0.587072 22.8232 0.616406L22.5922 1.60641L23.4722 1.08941C23.5235 1.06007 23.5528 1.04541 23.5602 1.04541C23.6188 1.03074 23.6775 1.03807 23.7362 1.06741C23.8022 1.09674 23.8425 1.14074 23.8572 1.19941L24.1102 1.95841C24.1248 2.02441 24.1175 2.09041 24.0882 2.15641C24.0588 2.21507 24.0148 2.25174 23.9562 2.26641C23.9488 2.26641 23.9378 2.27007 23.9232 2.27741C23.9158 2.27741 23.8975 2.28107 23.8682 2.28841L22.8562 2.38741L23.6152 3.04741C23.6592 3.09141 23.6812 3.11707 23.6812 3.12441C23.7178 3.16841 23.7325 3.22707 23.7252 3.30041C23.7178 3.36641 23.6848 3.41774 23.6262 3.45441L22.9882 3.92741C22.9295 3.95674 22.8672 3.96774 22.8012 3.96041C22.7352 3.95307 22.6838 3.92374 22.6472 3.87241C22.6472 3.86507 22.6435 3.85774 22.6362 3.85041C22.6288 3.83574 22.6178 3.81741 22.6032 3.79541L22.1962 2.86041L21.7892 3.79541C21.7818 3.81741 21.7708 3.83574 21.7562 3.85041C21.7488 3.85774 21.7415 3.86507 21.7342 3.87241C21.7048 3.92374 21.6535 3.95307 21.5802 3.96041C21.5142 3.96774 21.4518 3.95674 21.3932 3.92741ZM28.8053 3.92741L28.1673 3.45441C28.1159 3.41774 28.0866 3.36641 28.0793 3.30041C28.0719 3.22707 28.0829 3.16841 28.1123 3.12441C28.1123 3.11707 28.1343 3.09141 28.1783 3.04741L28.9263 2.38741L27.9253 2.28841C27.8959 2.28107 27.8739 2.27741 27.8593 2.27741C27.8519 2.27007 27.8446 2.26641 27.8373 2.26641C27.7859 2.25174 27.7419 2.21507 27.7053 2.15641C27.6759 2.09041 27.6686 2.02441 27.6833 1.95841L27.9363 1.19941C27.9509 1.14074 27.9913 1.09674 28.0573 1.06741C28.1233 1.03807 28.1819 1.03074 28.2333 1.04541C28.2479 1.04541 28.2773 1.06007 28.3213 1.08941L29.1903 1.59541L28.9703 0.616406C28.9629 0.587072 28.9593 0.568739 28.9593 0.561406C28.9593 0.546739 28.9593 0.535739 28.9593 0.528406C28.9593 0.469739 28.9813 0.414739 29.0253 0.363406C29.0766 0.312073 29.1353 0.286406 29.2013 0.286406H30.0043C30.0703 0.286406 30.1253 0.312073 30.1693 0.363406C30.2206 0.414739 30.2463 0.469739 30.2463 0.528406C30.2463 0.535739 30.2463 0.546739 30.2463 0.561406C30.2463 0.568739 30.2426 0.587072 30.2353 0.616406L30.0043 1.60641L30.8843 1.08941C30.9356 1.06007 30.9649 1.04541 30.9723 1.04541C31.0309 1.03074 31.0896 1.03807 31.1483 1.06741C31.2143 1.09674 31.2546 1.14074 31.2693 1.19941L31.5223 1.95841C31.5369 2.02441 31.5296 2.09041 31.5003 2.15641C31.4709 2.21507 31.4269 2.25174 31.3683 2.26641C31.3609 2.26641 31.3499 2.27007 31.3353 2.27741C31.3279 2.27741 31.3096 2.28107 31.2803 2.28841L30.2683 2.38741L31.0273 3.04741C31.0713 3.09141 31.0933 3.11707 31.0933 3.12441C31.1299 3.16841 31.1446 3.22707 31.1373 3.30041C31.1299 3.36641 31.0969 3.41774 31.0383 3.45441L30.4003 3.92741C30.3416 3.95674 30.2793 3.96774 30.2133 3.96041C30.1473 3.95307 30.0959 3.92374 30.0593 3.87241C30.0593 3.86507 30.0556 3.85774 30.0483 3.85041C30.0409 3.83574 30.0299 3.81741 30.0153 3.79541L29.6083 2.86041L29.2013 3.79541C29.1939 3.81741 29.1829 3.83574 29.1683 3.85041C29.1609 3.85774 29.1536 3.86507 29.1463 3.87241C29.1169 3.92374 29.0656 3.95307 28.9923 3.96041C28.9263 3.96774 28.8639 3.95674 28.8053 3.92741ZM33.7037 3.92741L33.0657 3.45441C33.0144 3.41774 32.985 3.36641 32.9777 3.30041C32.9704 3.22707 32.9814 3.16841 33.0107 3.12441C33.0107 3.11707 33.0327 3.09141 33.0767 3.04741L33.8247 2.38741L32.8237 2.28841C32.7944 2.28107 32.7724 2.27741 32.7577 2.27741C32.7504 2.27007 32.743 2.26641 32.7357 2.26641C32.6844 2.25174 32.6404 2.21507 32.6037 2.15641C32.5744 2.09041 32.567 2.02441 32.5817 1.95841L32.8347 1.19941C32.8494 1.14074 32.8897 1.09674 32.9557 1.06741C33.0217 1.03807 33.0804 1.03074 33.1317 1.04541C33.1464 1.04541 33.1757 1.06007 33.2197 1.08941L34.0887 1.59541L33.8687 0.616406C33.8614 0.587072 33.8577 0.568739 33.8577 0.561406C33.8577 0.546739 33.8577 0.535739 33.8577 0.528406C33.8577 0.469739 33.8797 0.414739 33.9237 0.363406C33.975 0.312073 34.0337 0.286406 34.0997 0.286406H34.9027C34.9687 0.286406 35.0237 0.312073 35.0677 0.363406C35.119 0.414739 35.1447 0.469739 35.1447 0.528406C35.1447 0.535739 35.1447 0.546739 35.1447 0.561406C35.1447 0.568739 35.141 0.587072 35.1337 0.616406L34.9027 1.60641L35.7827 1.08941C35.834 1.06007 35.8634 1.04541 35.8707 1.04541C35.9294 1.03074 35.988 1.03807 36.0467 1.06741C36.1127 1.09674 36.153 1.14074 36.1677 1.19941L36.4207 1.95841C36.4354 2.02441 36.428 2.09041 36.3987 2.15641C36.3694 2.21507 36.3254 2.25174 36.2667 2.26641C36.2594 2.26641 36.2484 2.27007 36.2337 2.27741C36.2264 2.27741 36.208 2.28107 36.1787 2.28841L35.1667 2.38741L35.9257 3.04741C35.9697 3.09141 35.9917 3.11707 35.9917 3.12441C36.0284 3.16841 36.043 3.22707 36.0357 3.30041C36.0284 3.36641 35.9954 3.41774 35.9367 3.45441L35.2987 3.92741C35.24 3.95674 35.1777 3.96774 35.1117 3.96041C35.0457 3.95307 34.9944 3.92374 34.9577 3.87241C34.9577 3.86507 34.954 3.85774 34.9467 3.85041C34.9394 3.83574 34.9284 3.81741 34.9137 3.79541L34.5067 2.86041L34.0997 3.79541C34.0924 3.81741 34.0814 3.83574 34.0667 3.85041C34.0594 3.85774 34.052 3.86507 34.0447 3.87241C34.0154 3.92374 33.964 3.95307 33.8907 3.96041C33.8247 3.96774 33.7624 3.95674 33.7037 3.92741ZM38.6021 3.92741L37.9641 3.45441C37.9128 3.41774 37.8835 3.36641 37.8761 3.30041C37.8688 3.22707 37.8798 3.16841 37.9091 3.12441C37.9091 3.11707 37.9311 3.09141 37.9751 3.04741L38.7231 2.38741L37.7221 2.28841C37.6928 2.28107 37.6708 2.27741 37.6561 2.27741C37.6488 2.27007 37.6415 2.26641 37.6341 2.26641C37.5828 2.25174 37.5388 2.21507 37.5021 2.15641C37.4728 2.09041 37.4655 2.02441 37.4801 1.95841L37.7331 1.19941C37.7478 1.14074 37.7881 1.09674 37.8541 1.06741C37.9201 1.03807 37.9788 1.03074 38.0301 1.04541C38.0448 1.04541 38.0741 1.06007 38.1181 1.08941L38.9871 1.59541L38.7671 0.616406C38.7598 0.587072 38.7561 0.568739 38.7561 0.561406C38.7561 0.546739 38.7561 0.535739 38.7561 0.528406C38.7561 0.469739 38.7781 0.414739 38.8221 0.363406C38.8735 0.312073 38.9321 0.286406 38.9981 0.286406H39.8011C39.8671 0.286406 39.9221 0.312073 39.9661 0.363406C40.0175 0.414739 40.0431 0.469739 40.0431 0.528406C40.0431 0.535739 40.0431 0.546739 40.0431 0.561406C40.0431 0.568739 40.0395 0.587072 40.0321 0.616406L39.8011 1.60641L40.6811 1.08941C40.7325 1.06007 40.7618 1.04541 40.7691 1.04541C40.8278 1.03074 40.8865 1.03807 40.9451 1.06741C41.0111 1.09674 41.0515 1.14074 41.0661 1.19941L41.3191 1.95841C41.3338 2.02441 41.3265 2.09041 41.2971 2.15641C41.2678 2.21507 41.2238 2.25174 41.1651 2.26641C41.1578 2.26641 41.1468 2.27007 41.1321 2.27741C41.1248 2.27741 41.1065 2.28107 41.0771 2.28841L40.0651 2.38741L40.8241 3.04741C40.8681 3.09141 40.8901 3.11707 40.8901 3.12441C40.9268 3.16841 40.9415 3.22707 40.9341 3.30041C40.9268 3.36641 40.8938 3.41774 40.8351 3.45441L40.1971 3.92741C40.1385 3.95674 40.0761 3.96774 40.0101 3.96041C39.9441 3.95307 39.8928 3.92374 39.8561 3.87241C39.8561 3.86507 39.8525 3.85774 39.8451 3.85041C39.8378 3.83574 39.8268 3.81741 39.8121 3.79541L39.4051 2.86041L38.9981 3.79541C38.9908 3.81741 38.9798 3.83574 38.9651 3.85041C38.9578 3.85774 38.9505 3.86507 38.9431 3.87241C38.9138 3.92374 38.8625 3.95307 38.7891 3.96041C38.7231 3.96774 38.6608 3.95674 38.6021 3.92741Z" fill="#1be19a"/>
</svg>
