<?xml version="1.0" encoding="UTF-8"?>
<svg width="40px" height="28px" viewBox="0 0 40 28" version="1.1" xmlns="http://www.w3.org/2000/svg" xmlns:xlink="http://www.w3.org/1999/xlink">
    <!-- Generator: Sketch 49 (51002) - http://www.bohemiancoding.com/sketch -->
    <title>mercadolivre</title>
    <desc>Created with Sketch.</desc>
    <defs></defs>
    <g id="Page-1" stroke="none" stroke-width="1" fill="none" fill-rule="evenodd">
        <g id="mercadolivre" fill-rule="nonzero">
            <path d="M40,13.2302237 C40,5.94135349 31.0460292,0 20.0009687,0 C8.95655403,0 0.00258318668,5.94135349 0.00258318668,13.2302237 C0.00258318668,13.4183404 0,13.9389274 0,14.0048989 C0,21.7372804 7.82576406,28 19.9977397,28 C32.2452736,28 39.9993542,21.7385868 39.9993542,14.0062052 C40,13.7357874 40,13.5803299 40,13.2302237" id="Shape" fill="#060E9F"></path>
            <g id="Group-2" transform="translate(1.000000, 0.000000)">
                <path d="M37.8625667,12.7 C37.8625667,19.4435897 29.4196,24.9102564 19.0044333,24.9102564 C8.58926667,24.9102564 0.1463,19.4435897 0.1463,12.7 C0.1463,5.95576923 8.58926667,0.488461538 19.0044333,0.488461538 C29.4196,0.488461538 37.8625667,5.95576923 37.8625667,12.7" id="Shape" fill="#00ADEE"></path>
                <g id="Group" transform="translate(0.000000, 4.346154)" fill="#FFFFFF">
                    <path d="M12.7426667,4.50128205 C12.7325333,4.52051282 12.5444333,4.71730769 12.6666667,4.87564103 C12.9643333,5.26025641 13.8833,5.48076923 14.8130333,5.26987179 C15.3665667,5.14423077 16.0759,4.57307692 16.7630667,4.02115385 C17.5072333,3.42179487 18.2469667,2.8224359 18.9892333,2.58397436 C19.7758333,2.33076923 20.2793333,2.43910256 20.6124667,2.54102564 C20.9779,2.65128205 21.4066667,2.89487179 22.0919333,3.41474359 C23.3820333,4.39679487 28.5709333,8.98076923 29.4671,9.77307692 C30.1891,9.44294872 33.3982,8.04487179 37.7587,7.07179487 C37.3799667,4.71858974 35.9657333,2.56602564 33.8212667,0.803205128 C30.8325667,2.07435897 27.1788667,2.73717949 23.6068667,0.971153846 C23.5885,0.963461538 21.6555667,0.0371794872 19.7486,0.0833333333 C16.9144333,0.149358974 15.6864,1.39102564 14.3874333,2.70576923 L12.7426667,4.50128205 Z" id="Shape"></path>
                    <path d="M29.2568333,10.2724359 C29.1966667,10.2173077 23.1565667,4.86794872 21.7879333,3.82692308 C20.9962667,3.22628205 20.5561,3.07307692 20.0931333,3.01282051 C19.8518333,2.98076923 19.5199667,3.02628205 19.2869,3.09102564 C18.6504,3.26666667 17.8182,3.82948718 17.0791,4.42307692 C16.3140333,5.03974359 15.5926667,5.62051282 14.9232333,5.7724359 C14.0682333,5.96666667 13.0232333,5.73782051 12.5469667,5.41153846 C12.3538,5.28012821 12.2182667,5.12820513 12.1524,4.97371795 C11.9763333,4.56089744 12.3012333,4.23076923 12.3544333,4.175 L14.0213667,2.35 C14.2151667,2.15448718 14.4102333,1.95833333 14.6097333,1.76602564 C14.0720333,1.83717949 13.5742333,1.97564103 13.091,2.11217949 C12.4868,2.28461538 11.9060333,2.4474359 11.3183,2.4474359 C11.0732,2.4474359 9.7584,2.22948718 9.5095,2.16089744 C8.0009,1.74294872 6.67723333,1.33653846 4.69933333,0.401923077 C2.33003333,2.18717949 0.745433333,4.41987179 0.287533333,6.87820513 C0.628266667,6.96923077 1.17673333,7.13461538 1.40663333,7.18653846 C6.76906667,8.39294872 8.43916667,9.63653846 8.7419,9.89551282 C9.06996667,9.52628205 9.54306667,9.29230769 10.0712667,9.29230769 C10.6647,9.29294872 11.1992333,9.59487179 11.5241333,10.0608974 C11.8306667,9.81538462 12.255,9.60576923 12.8022,9.60641026 C13.0511,9.60641026 13.3088667,9.65320513 13.5691667,9.74230769 C14.174,9.95192308 14.4862333,10.3602564 14.6483667,10.7288462 C14.8516667,10.6358974 15.1012,10.5679487 15.3950667,10.5685897 C15.6832333,10.5685897 15.9840667,10.6352564 16.2868,10.7673077 C17.2754333,11.1967949 17.4293333,12.1794872 17.3400333,12.9205128 C17.4103333,12.9121795 17.4812667,12.9089744 17.5528333,12.9089744 C18.7251333,12.9096154 19.6789333,13.874359 19.6783,15.0615385 C19.6783,15.4288462 19.5858333,15.774359 19.4243333,16.0775641 C19.7429,16.2589744 20.5561,16.6698718 21.2698667,16.5782051 C21.8398667,16.5057692 22.0564667,16.3083333 22.1343667,16.1974359 C22.1875667,16.1211538 22.2439333,16.0320513 22.1913667,15.9679487 L20.6783333,14.2666667 C20.6783333,14.2666667 20.4294333,14.0282051 20.5111333,13.9365385 C20.5966333,13.8423077 20.7505333,13.9775641 20.8594667,14.0698718 C21.6296,14.7205128 22.5694667,15.7032051 22.5694667,15.7032051 C22.5853,15.7134615 22.648,15.8384615 22.9950667,15.9012821 C23.2946333,15.9557692 23.8241,15.9237179 24.1908,15.6192308 C24.2832667,15.5423077 24.3757333,15.4461538 24.453,15.3467949 C24.4473,15.3512821 24.4422333,15.3583333 24.4365333,15.3602564 C24.8235,14.8589744 24.3934667,14.3519231 24.3934667,14.3519231 L22.6271,12.3442308 C22.6271,12.3442308 22.3744,12.1083333 22.4605333,12.0128205 C22.5371667,11.9301282 22.6999333,12.0551282 22.8107667,12.1480769 C23.37,12.6211538 24.1604,13.424359 24.9178667,14.175 C25.0654333,14.2846154 25.7317,14.7012821 26.6126667,14.1153846 C27.1472,13.7602564 27.2548667,13.324359 27.2396667,12.9948718 C27.2023,12.5596154 26.8666333,12.249359 26.8666333,12.249359 L24.4536333,9.79423077 C24.4536333,9.79423077 24.1990333,9.57371795 24.2889667,9.46282051 C24.3624333,9.36923077 24.5283667,9.50384615 24.6366667,9.59551282 C25.4055333,10.2467949 27.4860333,12.1775641 27.4860333,12.1775641 C27.5151667,12.1987179 28.2346333,12.7166667 29.1232,12.1442308 C29.4405,11.9384615 29.6438,11.6288462 29.6609,11.2685897 C29.6925667,10.6429487 29.2568333,10.2724359 29.2568333,10.2724359" id="Shape"></path>
                    <path d="M17.5534667,13.3846154 C17.1791667,13.3801282 16.7700333,13.6051282 16.7168333,13.5724359 C16.6870667,13.5525641 16.7396333,13.4 16.7744667,13.3121795 C16.8105667,13.225 17.3033,11.725 16.1018667,11.2032051 C15.1829,10.8032051 14.6211333,11.2532051 14.4279667,11.4564103 C14.3773,11.5096154 14.3545,11.5051282 14.3488,11.4378205 C14.3304333,11.1673077 14.2107333,10.4365385 13.4178,10.1916667 C12.2841333,9.84038462 11.5551667,10.6416667 11.3702333,10.9301282 C11.2872667,10.2762821 10.7413333,9.76858974 10.0719,9.76794872 C9.34483333,9.76730769 8.7552,10.3634615 8.75456667,11.0987179 C8.75456667,11.8339744 9.34356667,12.4307692 10.0706333,12.4307692 C10.4240333,12.4314103 10.7445,12.2884615 10.9807333,12.0596154 C10.9883333,12.0666667 10.9915,12.0788462 10.9870667,12.1044872 C10.9319667,12.4333333 10.83,13.6307692 12.0681667,14.1185897 C12.5647,14.3134615 12.9871333,14.1685897 13.3373667,13.9198718 C13.4418667,13.8455128 13.4583333,13.8769231 13.4437667,13.9762821 C13.3988,14.2839744 13.4558,14.9435897 14.3684333,15.3179487 C15.0632,15.6038462 15.4742333,15.3115385 15.7434,15.0596154 C15.8605667,14.9512821 15.8928667,14.9685897 15.8985667,15.1358974 C15.9315,16.0269231 16.663,16.7339744 17.5509333,16.7352564 C18.4654667,16.7358974 19.2071,15.9871795 19.2077333,15.0621795 C19.209,14.1352564 18.468,13.3948718 17.5534667,13.3846154" id="Shape"></path>
                </g>
                <path d="M29.4905333,13.9775641 C27.6298,12.3339744 23.3301,8.55064103 22.1654,7.66538462 C21.4997667,7.15897436 21.0463,6.89102564 20.6479333,6.77115385 C20.4693333,6.71666667 20.2210667,6.65448718 19.9025,6.65384615 C19.6061,6.65384615 19.2881667,6.70769231 18.9563,6.81474359 C18.2039,7.05576923 17.4540333,7.65897436 16.7288667,8.24230769 L16.6915,8.27179487 C16.0157333,8.81538462 15.3178,9.3775641 14.7889667,9.4974359 C14.5584333,9.55 14.3209333,9.57692308 14.0847,9.57692308 C13.4925333,9.57628205 12.9611667,9.40320513 12.7623,9.14615385 C12.7293667,9.10384615 12.7502667,9.03461538 12.8275333,8.93525641 L12.8376667,8.9224359 L14.4742,7.13717949 C15.7560667,5.83974359 16.967,4.61474359 19.7543,4.55 C19.7999,4.54871795 19.8474,4.54807692 19.893,4.54807692 C21.6277,4.54935897 23.3624,5.33525641 23.5568333,5.42628205 C25.1832333,6.22948718 26.8622,6.63717949 28.5506667,6.63846154 C30.3100667,6.63910256 32.1252,6.19807692 34.0334333,5.30897436 C33.82,5.12820513 33.5983333,4.95192308 33.3697,4.77884615 C31.6932667,5.51474359 30.096,5.88589744 28.5551,5.88525641 C26.9812667,5.88397436 25.4087,5.50128205 23.8817333,4.7474359 C23.8013,4.70833333 21.8861,3.79487179 19.8936333,3.79358974 C19.8410667,3.79358974 19.7885,3.79423077 19.7365667,3.79551282 C17.3957667,3.85128205 16.0765333,4.69230769 15.1898667,5.43012821 C14.3272667,5.45128205 13.5831,5.66153846 12.9212667,5.84935897 C12.3303667,6.01538462 11.8205333,6.15961538 11.3227333,6.15961538 C11.1175333,6.15961538 10.7489333,6.14038462 10.7153667,6.13910256 C10.1434667,6.12179487 7.26053333,5.40576923 4.9666,4.52692308 C4.73226667,4.69487179 4.50743333,4.86794872 4.28766667,5.04423077 C6.68356667,6.03846154 9.5988,6.80769231 10.5190333,6.86730769 C10.7749,6.88461538 11.0478667,6.91346154 11.3208333,6.91410256 C11.9294667,6.91410256 12.5374667,6.74166667 13.1252,6.575 C13.4722667,6.47628205 13.8554333,6.36858974 14.2582333,6.29038462 C14.1505667,6.3974359 14.0435333,6.50576923 13.9358667,6.61474359 L12.2727333,8.43525641 C12.1416333,8.56923077 11.8579,8.92628205 12.0447333,9.36538462 C12.1194667,9.54294872 12.2702,9.71217949 12.4823667,9.85641026 C12.8788333,10.1269231 13.5881667,10.3089744 14.2474667,10.3096154 C14.497,10.3096154 14.7338667,10.2846154 14.9517333,10.2352564 C15.6484,10.0769231 16.3799,9.48717949 17.1544667,8.86410256 C17.7719667,8.36794872 18.6485,7.73782051 19.3198333,7.5525641 C19.5079333,7.50064103 19.7378333,7.46858974 19.9227667,7.46858974 C19.9785,7.46923077 20.0304333,7.47051282 20.0792,7.4775641 C20.5225333,7.53461538 20.9519333,7.68717949 21.7176333,8.26858974 C23.0824667,9.30641026 29.1232,14.6551282 29.1827333,14.7076923 C29.1865333,14.7108974 29.5722333,15.0474359 29.545,15.6064103 C29.5304333,15.9179487 29.3594333,16.1948718 29.0624,16.3865385 C28.8046333,16.5519231 28.538,16.6365385 28.2694667,16.6365385 C27.8660333,16.6358974 27.588,16.4442308 27.5696333,16.4314103 C27.5474667,16.4128205 25.4777333,14.4923077 24.7164667,13.8474359 C24.5948667,13.7461538 24.4770667,13.6538462 24.358,13.6538462 C24.2940333,13.6532051 24.2376667,13.6807692 24.1996667,13.7294872 C24.0793333,13.8788462 24.2142333,14.0858974 24.3719333,14.2224359 L26.7893667,16.6820513 C26.7925333,16.6846154 27.0908333,16.9673077 27.1231333,17.3448718 C27.1421333,17.7525641 26.9496,18.0935897 26.5493333,18.3589744 C26.2643333,18.549359 25.9755333,18.6455128 25.6924333,18.6455128 C25.3213,18.6455128 25.061,18.474359 25.0027333,18.4333333 L24.6556667,18.0871795 C24.0217,17.4557692 23.3674667,16.8032051 22.8886667,16.3987179 C22.7721333,16.300641 22.6473667,16.2096154 22.5283,16.2096154 C22.4694,16.2096154 22.4162,16.2314103 22.3763,16.275 C22.3212,16.3365385 22.2838333,16.4474359 22.4193667,16.6307692 C22.4757333,16.7057692 22.5416,16.7685897 22.5416,16.7685897 L24.3060667,18.774359 C24.3206333,18.7923077 24.6696,19.2121795 24.3459667,19.6301282 L24.2832667,19.7102564 C24.2307,19.7692308 24.1730667,19.8237179 24.1192333,19.8705128 C23.8177667,20.1205128 23.4162333,20.1474359 23.2566333,20.1474359 C23.1717667,20.1474359 23.0894333,20.1397436 23.0178667,20.1262821 C22.8437,20.0948718 22.7271667,20.0455128 22.6701667,19.9782051 L22.6492667,19.9557692 C22.5523667,19.8551282 21.6631667,18.9358974 20.9272333,18.3141026 C20.8303333,18.2320513 20.7093667,18.1282051 20.5839667,18.1282051 C20.5219,18.1282051 20.4674333,18.1525641 20.4243667,18.2 C20.2787,18.3615385 20.4972,18.6025641 20.5896667,18.6910256 L22.0944667,20.3705128 C22.0925667,20.3852564 22.0735667,20.4198718 22.0368333,20.4730769 C21.983,20.5487179 21.8006,20.7333333 21.2546667,20.8025641 C21.1894333,20.8115385 21.1216667,20.8147436 21.0551667,20.8147436 C20.4921333,20.8147436 19.8917333,20.5384615 19.5826667,20.3724359 C19.7232667,20.0711538 19.7967333,19.7397436 19.7967333,19.4070513 C19.7973667,18.1532051 18.7916333,17.1333333 17.5528333,17.1326923 C17.5268667,17.1326923 17.4983667,17.1333333 17.4717667,17.1346154 C17.5123,16.5621795 17.4325,15.4788462 16.3336667,15.0012821 C16.0176333,14.8628205 15.7022333,14.7923077 15.3950667,14.7923077 C15.1550333,14.7923077 14.9245,14.8339744 14.7072667,14.9179487 C14.4792667,14.4698718 14.1018,14.1435897 13.6084333,13.9737179 C13.3361,13.8782051 13.0650333,13.8301282 12.8028333,13.8301282 C12.3455667,13.8301282 11.9244,13.9660256 11.5482,14.2365385 C11.1884667,13.7833333 10.6444333,13.5147436 10.0719,13.5147436 C9.57093333,13.5147436 9.08896667,13.7179487 8.73176667,14.075641 C8.2631,13.7134615 6.40553333,12.5192308 1.43323333,11.3762821 C1.19193333,11.3211538 0.639666667,11.1608974 0.300833333,11.0608974 C0.2451,11.3333333 0.2014,11.6089744 0.173533333,11.8865385 C0.173533333,11.8865385 1.0906,12.1089744 1.2711,12.15 C6.35106667,13.2916667 8.0294,14.4794872 8.31313333,14.7038462 C8.21686667,14.9371795 8.16746667,15.1891026 8.16683333,15.4435897 C8.1662,16.5057692 9.0193,17.3705128 10.07,17.3717949 C10.1878,17.3717949 10.3043333,17.3615385 10.4189667,17.3397436 C10.5773,18.1211538 11.0827,18.7141026 11.8547333,19.0179487 C12.0802,19.1057692 12.3088333,19.150641 12.5330333,19.150641 C12.6780667,19.150641 12.8237333,19.1326923 12.9662333,19.0955128 C13.1087333,19.4621795 13.4298333,19.9192308 14.1474,20.2141026 C14.3988333,20.3166667 14.6509,20.3705128 14.8947333,20.3705128 C15.0942333,20.3705128 15.2899333,20.3352564 15.4761333,20.2653846 C15.8200333,21.1128205 16.6383,21.674359 17.5503,21.674359 C18.1545,21.675 18.7352667,21.425641 19.1583333,20.9846154 C19.5206,21.1884615 20.2856667,21.5576923 21.0589667,21.5583333 C21.1590333,21.5583333 21.2527667,21.550641 21.3465,21.5397436 C22.1141,21.4416667 22.4713,21.1378205 22.6359667,20.9012821 C22.6651,20.8602564 22.6923333,20.8166667 22.7145,20.7711538 C22.8956333,20.824359 23.0951333,20.8666667 23.3231333,20.8673077 C23.7424,20.8673077 24.1445667,20.7224359 24.5518,20.4224359 C24.9514333,20.1307692 25.2351667,19.7121795 25.2757,19.3557692 C25.2763333,19.350641 25.2776,19.3455128 25.2782333,19.3403846 C25.4131333,19.3685897 25.5512,19.3826923 25.6892667,19.3826923 C26.1212,19.3826923 26.5455333,19.2467949 26.9508667,18.9775641 C27.7336667,18.4583333 27.8692,17.7801282 27.8565333,17.3358974 C27.9933333,17.3653846 28.1333,17.3794872 28.2726333,17.3794872 C28.6779667,17.3794872 29.0757,17.2564103 29.4550667,17.0115385 C29.9402,16.6980769 30.2321667,16.2173077 30.2765,15.6583333 C30.3069,15.2782051 30.2138,14.8948718 30.0155667,14.5653846 C31.3265667,13.9935897 34.3228667,12.8871795 37.8511667,12.0820513 C37.8302667,11.8051282 37.7903667,11.5314103 37.7416,11.2596154 C33.4742,12.2230769 30.2885333,13.6185897 29.4905333,13.9775641 Z M17.5534667,20.9615385 C16.7244333,20.9608974 16.0499333,20.3089744 16.0201667,19.4775641 C16.0176333,19.4064103 16.0106667,19.2173077 15.8523333,19.2173077 C15.7871,19.2173077 15.7307333,19.2570513 15.6655,19.3160256 C15.4831,19.4871795 15.2513,19.6608974 14.9118333,19.6608974 C14.7579333,19.6608974 14.5913667,19.624359 14.4153,19.5519231 C13.5400333,19.1929487 13.5273667,18.5839744 13.5634667,18.3397436 C13.5736,18.274359 13.5767667,18.2064103 13.5318,18.1538462 L13.4779667,18.1051282 L13.4228667,18.1051282 C13.3785333,18.1051282 13.3329333,18.1237179 13.2708667,18.1679487 C13.0175333,18.3480769 12.7749667,18.4352564 12.5279667,18.4352564 C12.3918,18.4352564 12.2524667,18.4076923 12.1131333,18.3532051 C10.9604667,17.899359 11.0516667,16.7980769 11.1074,16.4666667 C11.1156333,16.399359 11.0991667,16.3474359 11.0573667,16.3128205 L10.9763,16.2448718 L10.9003,16.3185897 C10.6754667,16.5378205 10.3816,16.6576923 10.0725333,16.6576923 C9.41196667,16.6570513 8.8749,16.1141026 8.87553333,15.4455128 C8.87616667,14.7769231 9.41386667,14.2346154 10.0738,14.2352564 C10.6704,14.2352564 11.1783333,14.6891026 11.2543333,15.2923077 L11.2955,15.6179487 L11.4722,15.3423077 C11.4918333,15.3102564 11.9757,14.5698718 12.8649,14.5705128 C13.034,14.5705128 13.2088,14.5980769 13.3842333,14.6532051 C14.0929333,14.8717949 14.2132667,15.5230769 14.2316333,15.7935897 C14.2443,15.9519231 14.3551333,15.9589744 14.3766667,15.9589744 C14.4381,15.9589744 14.4830667,15.9192308 14.5153667,15.8858974 C14.649,15.7448718 14.9403333,15.5096154 15.3963333,15.5096154 C15.6047,15.5102564 15.827,15.5602564 16.0562667,15.6602564 C17.1829667,16.149359 16.6718667,17.5987179 16.6655333,17.6134615 C16.5686333,17.8538462 16.5648333,17.9596154 16.6560333,18.0211538 L16.7003667,18.0423077 L16.7333,18.0423077 C16.7839667,18.0423077 16.8473,18.0198718 16.9518,17.9839744 C17.1050667,17.9307692 17.3368667,17.849359 17.5528333,17.85 L17.5534667,17.85 C18.4015,17.8596154 19.0918333,18.5583333 19.0912,19.4070513 C19.0912,20.2653846 18.4008667,20.9615385 17.5534667,20.9615385 Z" id="Shape" fill="#060E9F"></path>
            </g>
        </g>
    </g>
</svg>